<svg xmlns="http://www.w3.org/2000/svg" width="900.724" height="500.503" viewBox="0 0 900.724 500.503"><g transform="translate(-767.49 -689.979)"><path d="M12324.75,12911.547c2.035-42.837-1.068-86.2.944-129.595.5-10.877.318-26.57.944-39.8.919-19.366-2.872-32.669-3.778-49.984-2.006-38.4,6.8-73.385,24.55-97.2-10.18.878-19.265.295-21.716-7.871-2.435,1.936-5.946,2.813-9.442,3.708-1.714,3.173-.957,6.269-.941,10.643a54.61,54.61,0,0,0,10.565.48c5.045-.077,10.092-.152,13.51,1.372-17.875,1.279-36.1-.579-48.15,6.479,4.074,4.618,12.948,4.532,21.822,4.442,5.749-.057,11.5-.11,15.941,1.11-1.376,3.587-6.171,1.538-9.439,1.389-7.316-.331-16.678-.566-22.189-.923,2.859,1.361,7.167,1.3,8.972,3.7.409,2.409-.743,3.284-2.833,3.237,2.3.922,5.395.633,8.494.929,6.122.586,14.022.646,16.525,2.776-4.769,1.221-10.04-.091-15.4-1.4-4.327-1.06-8.712-2.119-12.929-1.839-2.221.146-3.977,1.992-6.135,2.317-6.3.945-8.895-2.257-13.691-4.632,3.168-1.572,5.937-.295,8.5.928.854-.622-3.081-2.219-1.89-3.243-7.229.8-14.149,4.311-21.241,3.707,2.2-3.406,7.9-4.045,12.272-5.092,4.872-1.168,9.91-1.844,14.162-3.24-1.191-1.689-3.622-1.674-6.15-1.658-3.477.025-7.139.048-8.012-4.359,2.964-2.185,6.434-3.874,9.442-6.02,1.772-5.642-.48-11.218-1.418-15.734-.8-1.53-3.5-1.2-4.72-2.313-1.344,3.621.37,10.238-.944,13.886-4.483-.545-7.2.652-8.024,3.7,5.08,1.117,10.079-1.84,13.218-4.163-.387,4.223-9.439,7.935-15.106,5.555.064-5.029,3.353-6.9,7.553-7.871v-8.794a13.819,13.819,0,0,0-5.19.465c-3.4.02-3.044-.227-1.46-.468a42.607,42.607,0,0,1,6.177-.459c2.724-5.2-1.915-10.616-.468-17.59.127-1.824-2.019-1.413-1.892-3.235a80.4,80.4,0,0,0,1.892-21.3,14.969,14.969,0,0,0-7.082-1.849c-1.267,2.307-1.48,5.645-1.89,8.793,1.314,1.486,5.083.567,5.193,3.239-.233,1.02-1.042.38-2.132-.26a3.741,3.741,0,0,0-3.062-.665c-1.581,6.337-.11,13.685,5.664,14.35v-1.853c.854,3.021,2.136,5.622,2.36,9.255-2.873-1.374-1.568,2.334-3.3,3.243-1.253.776-3,1.067-4.248,1.85-.338,3.218-.818,6.295-1.419,9.255.162.687,1.143.573,2.123.461,1.162-.134,2.32-.271,2.126.93-.526,1.824-5.934,1.047-6.608,0a72.4,72.4,0,0,0,2.359-10.646h-2.359c-1.688,7.446-.595,17.622-1.416,25.919-2.19-6.8-.324-17.578-.947-25.919a29.027,29.027,0,0,0-9.439-2.778c-2.032-5.1-.978-13.234-2.83-18.514h-2.834c.172,14.8,1.808,32.171,2.359,48.137,2.564,1.12,5.671.595,8.391.071a16.036,16.036,0,0,1,4.827-.536c-2,4.759-12.461,3.553-15.577.465-.763-16.225-1.655-32.318-1.89-49.062a5.6,5.6,0,0,1,2.52-.086,11.244,11.244,0,0,0,2.2.086c.753-1.454-.026-4.624.471-7.868,1.889.774.538,4.72.944,6.945,3.151-.235,6.5-1.865,8.023.923-.133,2.787-5.5,1.912-7.55,1.391.649,5.375.958,11.092,1.886,16.2a43.982,43.982,0,0,1,8.027,2.316c1.961-5.174-1.619-15.779,1.89-19.438,2.545,5.006-.377,12.562.471,18.975,2.193,1.365,5.579-.066,7.55-.462.98-2.008,1.844-3.637,1.418-5.557-.594-2.67-3.846-2.294-5.664-4.627-2.982-3.819-1.646-7.763-1.418-13.421a20.133,20.133,0,0,0-11.329-2.314c-.052.634.63.548,1.312.466a2.634,2.634,0,0,1,1.049,0c-.13.646-1.01.557-1.89.467a4.2,4.2,0,0,0-1.415,0c2-3.918,8.141-1.482,11.8-.926,2.048-3.236,1.921-8.605,3.3-12.5,1.8.417.345,1.858.471,3.237,1.938-1.07,5.467-.265,7.083.465,1.448-1.2-.831-6.058,1.886-6.02v6.02c1.354.626,3.432.547,5.509.464a28.247,28.247,0,0,1,3.463,0c2.675,5.323,3.8,17.723,1.416,23.6,1.077.118,4.7-1.241,6.135-2.312.24-7.975.12-18.7-2.36-25.457-4.269-1.833-12.363.09-14.633-3.7,5.038.618,10.219,1.088,15.1,1.852,7.6,8.444.325,30.051,9.442,36.1-.36-4.583-1.756-8.15-1.415-13.421,6.3,1.069,11.426,3.3,19.353,2.775-3.074-.84-3.392-4.387-5.661-6.015-1.344.188,1.218,2.715-.474,3.239-4.453-1.651-1.5-9.748-1.89-14.348-2.59-.955-5.687-.575-8.614-.193-2.408.312-4.7.624-6.492.193,3.113-1.873,14.958-4.411,17,0,2.8-1.559.328-10.7,6.608-8.332,1.968.23,2.022,2.334,2.834,3.7.224,0,.454-.007.688-.01,1.055-.025,2.113-.048,2.612.474.652.6.471,2.012.475,3.237.886-.492,5.358-1.572,7.553,0,.27-4.271-1.837-6.215-2.359-9.717a12,12,0,0,1-4.723.4c-2.191-.105-4.172-.21-5.194,1.444.529-3.137-1.359-3.908-2.83-5.091-2.587-.376-1.831,2.526-3.3,3.242-2.658-.265.5-5.168-3.774-4.63-.215.951.616,4.341,1.415,5.092.078.074.152.14.223.2a2.29,2.29,0,0,0-.223.263c-.915,1.24,1.042,3.8-.474,5.092-2.289,1.562-8.488,1.194-10.854,0,2.651-14.6-10.8-15.433-12.276-27.307,4.288.735,4.038,5.913,7.082,7.867,4-1.642,11.264.382,14.159,2.779,2.824-1.641,7.313-.332,9.442,1.387,2.26-.719,3.662-2.276,6.139-2.779a10.474,10.474,0,0,1,4.249-7.866c4.628-.221,8.783.027,11.8,1.388.529-.245-.366-2.228.468-3.237,8.086-3.876,17.093,1.182,25.022,1.85a47.384,47.384,0,0,0,.945,6.018c1.032-2.225.893-5.6,1.415-8.332-2.379-.906-5.678-.913-7.079-2.774-3.149-9.812,10.494-7.676,14.633-4.17-2.516-.941-14.367-4.165-13.218,1.853.451,2.385,3,1.786,5.664,2.779.6-.239-.733-4.166.468-5.094,4.638-.855,6.125,1.42,5.761,3.7s-2.554,4.538-5.284,3.707c.36,3.6-.724,5.771-.477,9.259,1.435-2.453.859-6.874,2.837-8.794,2.727-.207,4.823.2,6.135,1.389.474,2.466-.806,3.22-1.416,4.626,4.542.18,7.47,1.936,8.5,5.555-2.756-.848-3.333-3.829-7.557-3.24.637,3.781,7.086,1.606,6.612,5.095-2.263,2.26-6.245-1.518-8.023-2.781-.215,3.39-3.7,5.344-2.36,8.793,2.619-5.3,16.609-3.455,16.048-13.421-4.35-2.762-5.531-22.322,0-22.678,4.6-.3,5.038,8.477,5.664,13.424.857.22,1.669-.589,2.675-1.394a4.933,4.933,0,0,1,3.935-1.386c2.1,7.947-3.785,12-9.439,13.886-1.38.958-.824,3.822-2.363,4.628,1.659.383,1.665,2.378,2.363,3.7,1.785-.714,2.639-2.347,5.664-1.851,1.133.587-.26,3.648.944,4.164-.85,1.247-2.8-.3-2.362-1.85-1.99,1.674-7.95,2.5-7.551-1.853-2.041-.684-1.8,1.741-4.249,2.314-4.424,1.041-9.315-.452-9.913,4.166,2.136.133,10.5-.493,12.273,2.777,1.233-.643-.23-3.931.944-4.631,2.178,7.165.7,15.055,1.415,23.61.63.767,2.1.715,2.834,1.387-.022.421-.419.28-.89.143-.529-.152-1.155-.309-1.474.319-.643,6.339,3.272,8.21,7.554,9.72-5.869,3.245-10.082-3.044-9.913-8.794-3.918-3.26-5.619.14-9.913.926-2.75-1.114-2.068-6.492-.475-8.332,2.506-.14,1.013,3.639,1.419,5.554,3.295-.009,3.094-3.446,5.193-4.628,1.221-.184,1.338.713,1.454,1.614.114.878.228,1.757,1.377,1.626,1.094-1.709.165-5.395.474-7.87-3.379,1.05-11.4.585-12.747-3.24-2.993,2.094,1.236,2.352,1.419,5.1-.465,5.095.317,11.422-5.194,11.568-1.317-2.123,2.149-2.982,2.356-5.088-.435-1.118-3.431.275-2.827-1.856-.753-3.049,3.178-1.512,3.775-3.24a3.457,3.457,0,0,0-.948-3.239c-3.308.152-4.914,1.967-6.131,4.166-3.7.226-6.69,1.158-7.554,4.17a20.42,20.42,0,0,0,4.97.038,24.129,24.129,0,0,1,4.467-.038c1.474,4.572-3.409,5.96-4.246,9.72-2.13,1.307-6.888,2.841-9.439.922-.448-4.6,1.314-7.043,1.89-10.642-.036-.666-.848-.567-1.656-.466s-1.619.2-1.651-.465a11.454,11.454,0,0,1-9.439,6.945,21.178,21.178,0,0,1,0,7.4c.6,1.192,3.5,1.788,4.72.929,1.5-1.155-.779-6.009,1.418-6.479,2.393,1.7,2.143,8.676.944,11.106-3.038-1.342-7.738-1.053-9.916-3.242a20.884,20.884,0,0,1,.474-6.011c-4.229.384-15.048,3.465-15.106-2.782.893.824.909,2.5,3.3,1.852.055-.442-.961-3.342,0-5.089-2.944-1.585-7.161-1.926-7.08-6.482-1.454.427-1.889,1.854-2.833,2.782,2.21.146,3.8.9,4.72,2.31-.117,3.154-1.267,3.438.474,5.557-.078,5.972-3.7,12.17-2.834,17.585.776,4.849,5.674,8.227,8.024,11.574a19.958,19.958,0,0,1,5.667-.465c-.116.5-.937.315-.944.926a11.127,11.127,0,0,0,6.973-1.155c1.925-.846,3.654-1.692,5.774-1.158,4.105-3.072,7.417-6.919,12.743-8.794,1.127-1.161-1.194-1.55-.944-3.239,3.7-3.774,2.648-12.215,7.554-14.81,1.09,6.041-3.148,10.768-4.249,16.2,6.631-.331,14.558-4.543,22.66-1.85,13.562,4.5,19.164,23.647,20.3,38.876a147.8,147.8,0,0,1,0,17.125,138.122,138.122,0,0,1-15.107,54.613c-7.981,15.57-19.768,32.609-35.874,34.254-6.689.683-10.186-1.271-15.577-4.633-6.719-9.653-12.169-20.54-13.218-34.709-3.275-44.073,15.185-85.785,41.542-103.677-8.111,3.154-16.609,5.929-18.885,14.813a2.437,2.437,0,0,0-1.1.27,2.4,2.4,0,0,1-1.728.191c-17.752,23.526-26.351,57.843-24.549,96.735.522,11.3,3.473,21.959,3.3,32.858-.978,63.124-.945,128.794-.945,192.541,0,2.292,1.2,6.041-1.415,7.867C12322.7,12921.314,12324.568,12915.411,12324.75,12911.547Zm29.742-313.8c-20.16,26.47-34.371,84.428-12.75,116.635,5.563,2.735,9.332,5.783,16.525,5.094,7.583-.73,15.094-7.006,19.826-12.037,16.648-17.688,28.51-52.294,28.321-82.386-.117-19.365-5.112-39.888-18.882-44.434a19.4,19.4,0,0,0-6.122-1C12369.381,12579.612,12359.614,12591.018,12354.492,12597.744Zm-60.423,25.919a30.625,30.625,0,0,1-9.442-1.852C12286.317,12623.552,12290.7,12625.1,12294.069,12623.663Zm.471-4.628c1.834,1.614,7.2,3.591,9.913,1.388-.634-1.713-3.378-2.719-5.908-2.719A5.485,5.485,0,0,0,12294.54,12619.035Zm-2.831-1.852c-.876.993-3.477.3-4.249,1.385.987,1.657,2.711,2.593,5.661,2.315-.9-.789.367-3.7-1.334-3.7C12291.762,12617.182,12291.736,12617.182,12291.709,12617.184Zm-1.889-27.307c-1,3.8-.233,9.337-.471,13.882-3.454.934-5.563,3.192-8.972,4.167,1.425,3.567,8.628,3.589,9.442-.462-.964.395-2.6-.729-1.419-.927,7.9-.471,15.314-4.07,24.55-4.631a59.01,59.01,0,0,1,.471-10.181,9.157,9.157,0,0,0-1.8,0c-1.376.086-2.753.175-2.918-.923-.968-1-.162-2.881.941-3.243a17.15,17.15,0,0,0,13.691-2.313c-1.636-6.4,2.752-16.075,2.359-22.679-5.355,1.167-10.391.385-15.025-.4a49.292,49.292,0,0,0-8.576-.988c2.237,7.527,2.328,19.624,2.834,27.306-4.1-1.231-.63-9.874-2.363-13.424a40.838,40.838,0,0,1-4.249-5.551c2.185,8.485-3.723,10.519-8.023,13.882.438,2.916,4.778,5.535,2.359,8.333-.993.165-1.266-.373-1.538-.913-.235-.469-.472-.938-1.187-.938Zm-3.3-6.019c1.309-3.1-.63-6.7,0-10.643C12281.229,12573.977,12278.858,12584.212,12286.516,12583.858Zm2.36-14.348v11.105c2.759-1.614,5.888-2.865,7.553-5.555v-7.864a3.918,3.918,0,0,0-1.251-.19C12292.989,12567.007,12290.394,12568.472,12288.876,12569.511Zm-9.443,7.867c1.873-2.094,2.893-7.424-.944-8.327C12278.833,12571.8,12277.647,12576.045,12279.433,12577.378Zm5.194-6.482c.7.544.555,1.926,1.889,1.853-.295-1.255.6-3.673-.474-4.166C12285.9,12569.676,12284.406,12569.447,12284.627,12570.9Zm-7.083-6.011c1.227,1.266,2.954,2.039,4.249,3.235,8.336-2.068,5.187-15.547,4.723-24.066a13.9,13.9,0,0,0-5.142-.469c-.821.017-1.643.032-2.411,0C12279.515,12551.405,12278.171,12559.759,12277.544,12564.885Zm83.084-4.167c.02,1.371-1.406,3.7.471,4.167.272-.819-.571-2.722.474-2.782.782-.17.947.272,1.11.713.172.463.344.932,1.249.68,1.081-.642,2.947-.508,2.834-2.315a3.3,3.3,0,0,0-.944-1.392c-.228,1.127-1.7,1.028-3.178.93-.416-.027-.832-.056-1.221-.056A4.946,4.946,0,0,0,12360.628,12560.718Zm-24.546,3.236c4.015.083,7.4-.449,9.913-1.852-.922-3.214,2.311-2.358,2.356-4.628a1.478,1.478,0,0,1-.983-.229,1.5,1.5,0,0,0-.9-.231c-.887,1.906-.691,4.875-3.3,5.089-1.775.2-1.669-1.444-2.834-1.85C12339.918,12562.471,12336.591,12561.834,12336.082,12563.954Zm-2.363-.923a2.381,2.381,0,0,0,1.729-.194,2.506,2.506,0,0,1,1.1-.27c-.528-1.294-1.019-4.068,1.416-3.7,1.974.108-.532,1.722.947,2.314,1.191-.837,1.191-2.842,2.827-3.24v2.778c4.087.763,2.74-3.8,4.253-5.553.9.2,1.188.992,2.356.922-2.052-4.109-3.94-1.982-6.586.146-1.978,1.591-4.373,3.182-7.573,2.167C12333.608,12559.849,12332.937,12561.487,12333.719,12563.031Zm-15.106-6.018c1.516,1.753,4.135,2.425,7.556,2.316v-2.316a2.082,2.082,0,0,1-1.636-.414c-.707-.449-1.194-.9-1.672.414.192.02.409.016.624.016.581-.006,1.158-.013,1.266.445-.929.863-3.477.688-2.83-1.388.259,0,.535-.372,0-.461C12321.455,12556.718,12319.2,12556.039,12318.612,12557.014Zm48.624,1.852c2.191.141,3.262-.815,3.3-2.778a2.569,2.569,0,0,1-1.049-.006c-.682-.084-1.363-.166-1.312.471a3.323,3.323,0,0,1,1.415.923,3.356,3.356,0,0,0-.729-.09C12367.82,12557.385,12367.471,12558.069,12367.236,12558.865Zm-39.652-6.018c2.573,5.8,15.142,4.366,16.051-1.853a2.179,2.179,0,0,0-1.84.438,2.175,2.175,0,0,1-1.468.487c-1.408-1.35-.444-2.275-.941-4.166-1.71.137-1.827-1.292-3.3-1.388.428,1.968-.77,2.33-1.89,2.776-.971-.746-1.094-2.32-.944-4.164-3.292-.527-5.8,4.758-2.831,6.016-1.077.131-1.775-.111-1.889-.927-.176-2.946,1.724-3.86,2.83-5.551l-.189,0C12327.141,12544.516,12327.638,12548.951,12327.584,12552.848Zm17.466-6.48c2.064.933,1.584,1.506,1.89,4.166,2.048.767,3.048,2.563,3.3,5.093,2.736-.42,2.973-5.149.944-6.482-.478,1.078-1.626,1.5-3.3,1.39-.149-.624-.675-.886-.474-1.849.275-1.124,1.782-1.032,2.834-1.391v-2.776a3.728,3.728,0,0,0-1.972-.54C12346.669,12543.977,12345.118,12544.911,12345.05,12546.367Zm-26.437,7.405a4.415,4.415,0,0,0,4.723-3.239,7.525,7.525,0,0,0-1.016-.075C12319.958,12550.458,12319.01,12551.846,12318.612,12553.772Zm44.846-6.018c-2.753,1.006-6.109,1.42-5.661,5.554,1.444.681,2.457.127,3.775-.461.746-1.306-.546-1.964.471-3.241a6.511,6.511,0,0,1,1.778,0c1.078.1,2.155.188,2.471-.466-1.393-.488-1.643-2.092-2.36-3.237h-5.664a6.138,6.138,0,0,0-1.418,4.627c1.426-1.1,4.164-2.855,6-2.855A2.24,2.24,0,0,1,12363.458,12547.755Zm-46.732,5.554c-.383-4.605,5.982-5.729,9.442-3.7-.337-2.335.644-3.38.941-5.089-1.457.043-1.405-1.4-1.415-2.777a2.448,2.448,0,0,0-1.778.2,2.446,2.446,0,0,1-1.526.259c-.859-1.776-.172-5.077-2.83-5.093-2.389.286-3.113,2.2-2.834,5.093h.529c1.4-.007,2.8-.014,2.775,1.387a3.13,3.13,0,0,0-2.359-.461c-.348,1.406.772,1.381,1.892,1.352.815-.019,1.633-.041,1.883.5-2.281.385-3.337-.429-4.72-.926C12315.479,12545.727,12312.9,12552.357,12316.726,12553.309Zm33.989-11.106c1.2,1.139,1.688,2.975,1.415,5.553.317,1.079,1.567,1.241,1.889,2.313,1.1,6.636.8-1.416,1.419-4.162,1.094-.316,1.259-1.538,2.359-1.853a10.33,10.33,0,0,0,4.246-.465c.944-3.393-1.929-3.045-2.36-5.089,4.2-3.86,2.513,5.375,5.664,5.554.961-3.437-.817-4.059-.47-7.868-2.344-.309-4.97.691-7.629,1.693-3.956,1.49-7.984,2.979-11.253.159-.043-3.373-5.808-5.486-2.834-8.8-1.792,3.145,2.811,6.919,4.723,5.092-3.813-1.651-6.67-12.684.944-9.258-.233,0-.471-.007-.707-.01-1.052-.021-2.1-.045-2.6.477.188,3.776,3.232,8.8,6.135,6.938-1.961.208-4.3-1.619-2.831-3.239.3,1.079.095,2.625,2.831,2.313.052-2.293-.465-2.271,0-4.161-1.409-.315-2.889-.561-3.308-1.851,4.041.354,8.494.313,9.445,3.7-2.646,2.7,2.292,2.985.471,6.019,2.613.111,2.094-3.557.941-4.631,2.71-11.626-16.411-9.348-19.353-2.775v4.627c-1.211-.041-.675-1.8-1.889-1.852-.7,1.629-2.678,2-3.775,3.242,4.457,1.156.517,9.835,3.3,11.568,1.552-.913,4.947-2.418,6.609-.461.327-2.21,2.246-2.863,4.827-2.863C12349.5,12542.116,12350.094,12542.148,12350.715,12542.2Zm-11.329,3.7c.215,2.236,3.172,1.152,3.3-.466a4.4,4.4,0,0,0-.76-.069A15.442,15.442,0,0,0,12339.386,12545.906Zm33.755-6.954c-.24,0-.48.01-.711.01,1.182,2.839-3.275,5.817-1.889,7.405,2.6-1.464,5.333-2.792,5.193-6.941a2.714,2.714,0,0,0-1.935-.484C12373.583,12538.941,12373.362,12538.946,12373.141,12538.952Zm4.479-1.378c1.6,3.729,2.82,8.427,10.387,7.405,1.62-1.187,2.289-3.311,1.887-6.479-2.513,1.085-2.581,4.567-7.08,3.7-.224-2.7-1.136-6.24-2.909-6.241C12379.26,12535.961,12378.5,12536.428,12377.62,12537.574Zm-9.439,6.015a9.519,9.519,0,0,1,1.415-2.775h-1.889C12367.979,12541.628,12367.136,12543.534,12368.181,12543.589Zm-2.359-7.4v2.776c.847.692,2.622-.507,3.774-.924-1.366-.207.419-3.5-.944-3.7C12368.271,12535.5,12366.707,12535.514,12365.821,12536.186Zm18.407,2.776a4.415,4.415,0,0,1,3.3-1.388c-.425-1.745-2.616-1.755-4.72-1.854C12382.979,12537.1,12383.083,12538.538,12384.229,12538.962Zm-82.609-12.96c3.671,1.646,4.041,6.531,3.778,12.036,2.062.962,4.947.332,6.605-.464.25-3.635-.9-5.907-2.83-7.406-.5.433-.146,1.709-1.415,1.387-2.1-5.286,8.1-3.38,9.913-1.387,2.372-.3,2.674-2.626,3.3-4.625a18.567,18.567,0,0,0-7.082-.929c-1.065,1.113-.575,3.753-3.3,3.24-.275-1.5.321-2.155.471-3.24a28.729,28.729,0,0,0-6.608-1.387C12305.349,12525.958,12302.619,12525.13,12301.619,12526Zm44.376,9.719c-.432,2.837,4.35,3.563,5.664,1.854-1.635-.775-2.953-1.858-5.378-1.858C12346.188,12535.716,12346.092,12535.718,12346,12535.721Zm25.49.927c2.032-.631,4.207-1.121,3.775-4.166-1.565.583-3.961,1.668-5.19,0C12370.586,12533.831,12370.508,12535.753,12371.485,12536.647Zm-20.3-3.239c.078,2.688,4.524,2.842,6.135,1.388.312-3.377-1.76-5.589-4.252-3.7-.345,1.576,1.743.761,1.889,1.854a6.767,6.767,0,0,1-1.746-.09,5.351,5.351,0,0,0-.847-.112A1.465,1.465,0,0,0,12351.188,12533.408Zm12.64,1.588a1.263,1.263,0,0,0,1.049.265c.366-1.028.989-1.806.944-3.24,1.467-.411,3.288-.479,3.3-2.314.37-1.906-2.262-.868-1.889-2.778-2.594-.069-4.681.351-5.664,1.853.64-.168.555.379.471.923s-.169,1.092.474.927c-.224-1.039,2.562-1.423,2.83-.462-1.161-.061-2.275-.07-2.83.462v4.166a1.948,1.948,0,0,1,.534-.086A1.264,1.264,0,0,1,12363.828,12535Zm-38.6-3.441c4.59,1.048,9.579-.111,11.328-3.238-5.735.687-8.867-1.182-9.913-5.089a9.017,9.017,0,0,1-2.83,1.849c-.354,1.426,1.295.894.941,2.317-.289.136-1.817,1.148-1.89,0,1.556.336.725-.921,0-.928.2,1.114-.859,1.006-.471,2.314a4.388,4.388,0,0,1,.689-.059C12324.759,12528.722,12325.187,12529.948,12325.224,12531.555Zm47.206-2.312c.708-1.937,3.954-3.826,2.831-6.015C12374.332,12524.949,12371.323,12527.068,12372.43,12529.242Zm-11.331-1.849c1.982-.523,3.4-1.611,5.667-1.851.6-3.459,1.788-7.79-.944-9.723-7.414-1.254-8.184,4.01-13.221,5.093a11.647,11.647,0,0,1,1.288-.076C12358.521,12520.837,12359.862,12524.061,12361.1,12527.394Zm-31.155-2.317c1.5.1,3.743,1.855,5.193.467a10.853,10.853,0,0,0-5.193-2.781Zm9.442-5.555c0,2.887-.471,4.087-1.418,5.093,1.165.906,2.616-.863,3.774-1.387.26-1.641-1.668-1.141-1.415-2.779,1.282.289,1.175,1.936,2.834,1.852,1.373-1.074.088-2.08,1.415-2.778-1.263-1.523-6.68-4.088-7.55-.46a2.607,2.607,0,0,0,1.042-.007,5.458,5.458,0,0,1,.671-.059C12339.133,12519,12339.418,12519.1,12339.386,12519.521Zm-3.3,3.706c1.444,0,3.242-2.031,1.886-3.241-.282,1.951-.51,2.257-1.886.462C12335.7,12522.049,12336.965,12522.4,12336.082,12523.228Zm-4.724-1.849c.159,1.553,4.09,2.71,4.724.921-1.276-1.733-.137-5.05.47-6.479-4.911-.648-5.946,2.5-6.608,6.015,1.218-.072,1.6-3.321,3.3-1.387a4.258,4.258,0,0,1-.737-.007c-.162-.011-.325-.021-.478-.021C12331.484,12520.42,12331.081,12520.564,12331.358,12521.379Zm43.9-7.871c.016,2.039-1.49,5-.471,6.479,1.479-1.944,4.466-2.409,4.249-6.018a3.036,3.036,0,0,1-1.89-.232,2.971,2.971,0,0,0-1.889-.229Zm-18.882,3.239c-1.156-.414-1.279-3.236-.471-4.166-3.334-.777-8.674-.821-10.858.927,1.454,5.276,2.419,3.02,6.609,1.849C12350.205,12517.119,12355.323,12518.766,12356.379,12516.747Zm40.123,0c2.194-2.174,7.222-4.02,6.138-7.867C12400.68,12511.282,12395.895,12513.367,12396.5,12516.747Zm-3.3-1.852c5.392-3.092,2.672-13.721-.941-17.127C12391.007,12502.216,12391.165,12510.862,12393.2,12514.9Zm-20.3-8.795c-.266,2.286,1.707,2.646,3.3,1.853a1.886,1.886,0,0,0-2.037-2.253A2.054,2.054,0,0,0,12372.9,12506.1Zm-40.126,408.223c2.947-63.579.548-131.941,4.248-195.316,1.085.946.173,3.841.471,5.553,8.209-.044,19.32,4.3,26.913,7.868,3.476-1.154,19.657-.655,20.293,2.314-.169,3.008-4.85,1.3-7.55.93-3.113-.427-6.238-1.08-8.5-1.392,4.83,4.711,20.671,7.922,18.882,18.513-1.029,6.105-14.74,10.417-21.712,12.5-9.427,2.81-18.808,6.012-26.909,6.48,15.11-6.938,36.141-8.072,46.262-19.905-9.93-13.869-29.188-18.589-47.681-24.066-.013,39.942-.415,79.508-1.411,118.488,2.382-14.638,5.638-28.415,15.106-36.1-3.905-1.107-9.273-.783-10.861-4.166,2.233-2.692,5.411-1.521,8.631-.354a14.934,14.934,0,0,0,5.531,1.279c4.82-.264,7.358-4.611,11.8-5.092.717,1.7-6.629,3.325-8.027,6.021,11.257,3,23.163,5.369,33.518,9.252-9.734.54-18.353-2.168-27.851-4.166-2.967-.621-6.813-2.161-8.972-1.85-2.873.42-7.979,6.216-9.91,9.258-4.615,7.246-8.1,20.347-8.968,30.082-1.429,16.05-.475,33.965-.475,50.912,0,7.587,1.152,15.464-1.415,21.753C12330.645,12922.242,12332.67,12916.634,12332.774,12914.323Zm-162.386-.462a14.837,14.837,0,0,0-2.74.08c-1.9.171-3.632.344-4.34-1.006,1.795.4,1.24,1.359,1.419-1.389a121.648,121.648,0,0,1,28.321,4.628c2.717-4.809,14.373-10.206,16.048-16.2,1.782-6.362-.471-16.69-.471-24.992,0-57.345-1.348-121.337-.475-176.339,1.289,46.568,2.363,99.736,2.363,148.571,0,16.163-1.308,32.735,0,48.132.218,2.544-.185,3.912,1.415,5.554-5.3,6.993-13.662,10.98-18.41,18.517C12187.835,12918.129,12177.7,12914.564,12170.389,12913.861Zm20.773-11.106c0-63.814-3-131.9-2.833-196.706a1.262,1.262,0,0,1,.941-1.39c.383.086.471.462.944.462.763,68.874,3.661,141.151,2.834,209.2C12189.718,12912.868,12191.162,12906.848,12191.162,12902.755Zm30.682-4.166c.23-41.916.643-90.055,1.889-130.982-4.006-1.51-6.142-7.2-5.664-11.573,3.021,1.973,3.7,6.244,5.19,9.72,16.85,2.514,32.979,6.776,50.51,8.794,15.795,1.816,31.736,4.538,48.151,6.018-.442,2.824-3.221,2.381-6.323,1.941a14.467,14.467,0,0,0-5.479-.092c-.785,11.5-2.415,26.83-.944,37.494-2.078,3.053.282,10.458-2.831,12.5-3.129-1.318-.064-5.834-.944-9.259-11.487.933-21.229,6.019-31.629,6.479,3.795-3.911,10.417-4.362,16.049-6.019,5.66-1.657,11.107-3.714,16.051-5.55.321-8.79.675-17.543,1.419-25.922-23.024,4.124-44.532,12.183-66.562,15.741,4.146-4.017,10.53-4.039,16.052-5.558,16.34-4.49,33.732-9.872,50.511-13.886-.114-2.267.83-3.5.471-6.018-17.23-4-34.8-3.7-52.4-7.4-5.031-1.06-9.9-3.52-15.1-4.628-5.56-1.186-11.065-.33-15.577-2.776.348,47.108-.574,95.369-.474,140.7,1.932.33,3-.752,3.833-1.831.792-1.022,1.38-2.039,2.3-1.874,1.5,3.879-1.979,6.216-5.664,6.482C12220.626,12908.849,12221.82,12903.2,12221.844,12898.589Zm193.069,9.254c-8.189-46.428-15.778-93.45-23.131-140.7-7.05,1.767-14.133,8.574-20.771,11.11-4.551,1.737-10.261,2.737-15.107,4.163-4.82,1.419-10.711,3.469-15.577.927,20.7-3.309,37.229-10.707,50.507-21.289.228-3.766-.733-6.374-2.356-8.331,1.682-13.931,1.61-29.587,3.3-43.507-1.312,1.823-.555.216-.471-3.24,2.834,3.842,1.2,9.758.944,15.271-.606,13.125-3.207,30.982,1.886,40.734.494,11.905,3.37,26.456,5.665,39.339,6.145,34.481,12.062,70.842,18.881,104.6,3.844.217.27-6.832,2.834-7.869,3.753.5,1.775,8.765,0,9.721-.575.021-1.146.035-1.7.035A9.232,9.232,0,0,1,12414.913,12907.843Zm-253.022-190.224c-5.379.541-17.324.2-21.713-3.24,6.7-.044,15.77-1.164,21.713,1.385.25-2.839-.536-6.7.474-8.79h1.415c2.393,62.449,2.159,127.322,4.72,190.227.143,3.406,1.36,9.612-1.886,11.108C12163.134,12846.778,12163.933,12780.813,12161.891,12717.619Zm68.45,175.414c.705-37.971,1.341-82.973,2.834-120.339a2.16,2.16,0,0,0,.471-1.388c2.9,14.624,1.1,35.687.941,51.838,25.179,4.41,52.422,10.235,78.364,15.273,2.33.455,9.786.844,9.438,3.705-.47,3.879-11.367-.084-13.217-.466-14.971-3.058-29.25-5.337-42.957-8.789-7.554,4.01-18.668,6.991-28.321,7.4,3.1-4.905,16.22-5.063,22.657-8.333-8.112-2.536-17.519-3.806-25.491-6.479-.727,21.354-.821,44.646-.944,67.575-.01,2.152,1.179,5.936-1.415,7.407C12228.54,12900.325,12230.3,12895.014,12230.341,12893.033Zm188.821-6.479c-2.548-19.859-5.463-41.526-8.5-62.48-3.791-26.2-8.069-51.635-10.384-78.687.7-2.23-2.168-.962-1.89-2.775,1.436-20.5,2.623-45.257,4.72-66.649.549-.077.841.1.945.462q-.721,30.533-2.36,60.169c6.368.2,15.11,1.379,21.241,1.853-3.421,2.415-7.537,1.563-11.86.713a26.43,26.43,0,0,0-8.907-.713c-.85,1.619-.7,6.223,0,7.867,1.714.061,6.759-.092,8.5,1.392-1.415,1.7-4.876,1.388-8.024,1.388,6.97,41.313,11.767,85.131,17.938,127.743.818,5.658,2.486,11.485,1.415,17.125C12418.324,12893.4,12419.432,12888.658,12419.162,12886.555Zm8.023-2.313c-.6-2.664.331-5.391.471-8.332,1.406-29.579.419-59.754,1.89-90.717.221-4.631.535-9.729.474-14.348-.435-32.141,3.363-62.573,5.19-88.863-1.876,65.469-5.32,135.733-5.664,202.722,1.188,3.373,6.333,4.144,7.553-.462.691-2.6-.288-9.132,0-15.273,2.1-44.343,1.691-91.054,3.775-136.075.539-11.636,1.626-23.582,1.89-35.643.067-3.144-1.513-7.051,1.415-8.793,4.811.424,1.811,8.135,1.893,12.036,4.446,3.857,11.412,1.855,16.519,3.705,7.066,2.556,11.926,9.036,17.937,12.033-.227,13.059-18.213,17.381-30.21,20.827a7.167,7.167,0,0,1-5.193,0c.367,4.679-.711,7.94-.471,12.5,5.7-2.254,11.026-5.62,16.522-8.329,5.439-2.687,10.721-6.095,16.519-6.944-.3,3.307-4.648,4.386-7.08,5.555-8.131,3.914-17.08,8.337-25.961,12.032-.159,3.553-.74,6.684-.474,10.646,10.75-4.425,22.089-8.272,32.573-12.96,2.142-.134,2.827-.678,4.245.464.565-3.185-1.454-6.269,0-8.793,2.753.452,2.013,4.01,2.363,5.554,6.846,30.146,9.687,64.861,16.052,95.807.1,1.326-.124,2.352-.948,2.776.987,2.184,4.467,3.075,6.138.928-4.307-26.94-8.832-53.6-13.217-81.462-1.637-10.41-3.717-21.664-2.831-31.473.767-8.507.932-18.265,1.412-27.771.578-11.307,2.863-24.013.948-31.934,1.847-2.2,1.83-6.229,1.889-10.186-6.878,11.2-13.175,31.747-30.687,31.938-13,.144-17.109-13.85-19.822-24.992-6.934-28.459,1.052-63.944,11.8-83.772-12.994,14.856-21.2,42.738-19.353,74.514.422,7.241,3.08,14.052,1.889,20.369-2.648-.5-2.534-4.421-2.833-6.48-4.379-30.243,1.412-62.636,13.218-81.927,2.5-4.085,6.054-6.94,9.438-11.1,7.326-9.016,11.332-19.971,25.491-21.291-2.688-2.043-.7-6.423-.945-10.649-.314-5.4-4.544-10.362,1.893-12.03-1.905-1.683-4.135-3.045-4.72-6.018-1.227,1.314-1.837,7.272.471,7.867-.937,1.185-1.883-1.518-2.83-1.85.733,9.052-5.061,11.7-10.861,14.345-.685,3.5-.86,9.955,0,13.424-2.052.764-1.6-4.895-2.359-6.941-1.324,2.095-1.438,5.379-1.415,8.793-2.059-2.129-.01-5.483,0-8.328-2.763-.55-2.493,1.875-3.778,2.772-8.355,1.526-16.214,3.544-25.491,4.166,3.454-3.243,10.2-3.269,15.577-4.625-4.973-1.447-9.725-3.112-15.577-3.7-3.648,5.509-1.451,16.425-8.969,17.59a9.652,9.652,0,0,1-4.58-.675,10.721,10.721,0,0,0-4.388-.717c-.792-3.079-.533-7.191-1.416-10.181a24.818,24.818,0,0,1-5.664,5.554c-.27,4.517.737,10.286-.944,13.422-1.687-4.067-2.562-10.732-.944-14.81.866-2.183,4-3.856,5.193-6.94.4-1.044.12-2.075.471-2.782.464-.93,1.629-.1,1.889-1.384,1.412-7.081-2.82-12.807-2.359-22.683a115.17,115.17,0,0,0-17-.926c3.382-2.781,13.5-1.159,18.414-.927,1.486,3.173,1.425,7.86,1.89,12.036,3.59,2.551,8.42,1.426,12.7.3,2.531-.665,4.875-1.33,6.654-1.231,1.379,4.5-.4,9.744-1.416,13.428,8.089,1.069,19.119,4.359,29.74,1.849,1.587-1.836,1.749-5.073,2.83-7.406,10.361-3.274,11.082-13.694,9.442-26.845-1.289-1.471-7.4-3.632-9.913-1.853a1.891,1.891,0,0,0-.477.46c-2.258-2.165-8.729,1.575-11.8,2.321-1.724,12.485-.6,24.866,8.969,28.691-12.23,1.888-12.3-21.771-8.969-31.473,1.416.306-.451.989,0,1.853,6.3-2.753,16.224-5.158,23.131-1.387.916,3.733.646,8.62,1.419,12.493,1.516-6.068,2.09-13.063,4.245-18.509-2.882.134-4.531,2.669-9.442,1.85-3.337-.558-8.047-6.334-7.55,1.387-1.236-1.528-.26-4.52,1.415-5.089,1.986-.675,4.295,2.482,6.609,2.774,6.074.773,10.089-3.26,13.008-5.878-3.547,3.982-8.407,21.82.684,24.854a38.528,38.528,0,0,1,15.1-2.313,7.025,7.025,0,0,1,1.889,5.556c4.34-8.351-2.619-18.576-.948-27.306-4.5-1.178-10.838-.144-15.1.462.058,1.145-.578.785-.471,0,2.862-1.5,7.307-1.442,11.753-1.389,1.451.016,2.9.035,4.3,0-.312,8.7,5.788,17.784,3.771,26.843-.648,2.924-4.21,4.617-3.771,8.332,8.125,4.044,17.281,2.265,26.237.49,5.765-1.144,11.445-2.286,16.717-1.878.564-2.06.24-4.8.474-6.019-2.278-.051-4.213,1.306-7.554,1.388-.633-.3-.369-1.034-.944-2.313-.682-1.522-.814-1.49-.687-1.462.1.025.393.051.688-.853.278-.853-.159-2.354-.685-3.88a2.831,2.831,0,0,0,1.155,1.1c.042-2.593,1.266-6.463,0-8.8-1.514.856-2.184,3.586-1.809,5.824a6.786,6.786,0,0,1-.551-2.584c.49-3.135,4.768-5.911,3.3-10.183,1.4.469,3-.21,4.931-.884a13.85,13.85,0,0,1,6.4-.968,47.674,47.674,0,0,0,1.415-7.4c.594,1.187,1.383.772,2.4.359a3.962,3.962,0,0,1,2.317-.359c-4.366.631-1.49,3.125-4.249,2.313-.214,6.865,2.714,13.645,0,21.288,1.107,2.312,4.155,2.716,7.554,2.779,1.5-7.789-1.314-19.8,3.3-24.532-.288-2.187-3.1-1.9-5.664-1.849-.146-1.038,5.717-.513,6.135.923-.516-5.507,6.246-5.605,10.388-5.089a10.879,10.879,0,0,1,2.359,6.015c2.986-.5,8.534,1.053,7.554,1.391a10.189,10.189,0,0,0-6.609,0c.1,2.272,2.405-.3,1.887,2.776a53.616,53.616,0,0,1,5.193-1.85c1.415-2.314,1.13-6.3,1.889-9.259,1.5,1.188-.687,5.872-.474,8.794.166,1.1,1.545,1.015,2.925.927a9.117,9.117,0,0,1,1.8,0,34.49,34.49,0,0,1,1.415-9.721c-1.661-1.317-3.946-.028-4.248.461-1.263-1.212,3.048-2.659,4.248-1.383,1.617-1.658,2.844-3.7,6.609-3.243-1.165-2.521.1-5.443,1.418-6.942,5.343-1.549,10.868.341,12.747,3.7,2.859-2.282,5.031-5.245,8.5-6.94,5.476.336,7.726,3.84,13.217,4.165,1.152-5.608-7.611-1.487-8.026-5.558-2.295.351-4.785,1.738-6.609,0-.711-4.5,4.077-3.949,6.139-2.312.85-.716-4.3-1.921-2.831-3.24.036-2.14,4.8-1.534,6.132-.923a9.524,9.524,0,0,0,5.2,9.255c1.26-3.873,7.6-3.683,10.854-1.387-.3,1.705-1.612,2.427-3.3,2.773-1.694.271-1.437-1.367-1.415-2.773-.857,1.418-2.4,4.085-4.249,1.849-.084,2.745,1.782,2.3,3.3,1.39-.542.908-3.311,2.515-3.3,0-1.055.194-.373,2.454,0,2.776a4.2,4.2,0,0,0,3.931-1.224,4.334,4.334,0,0,1,4.564-1.091c.82-1.047.415-3.294,1.889-3.7,1.717.065-1.029,2.074.941,3.238,2.32-.044,3.415-1.281,5.667-1.39.607-2.295-1.146-2.273-.947-4.163-2.5-.532-3.5-.214-6.135,0,4.907-5.632,12.36,4.186,6.069,6.79,2.166-.728,3.135.317,4.788,1.077v-3.24c2.064.748-3.146,9.07,0,10.181a2.337,2.337,0,0,1-2.363.931c.071,1.221-.87,4.08.478,5.088-.01-2.564.636-4.595,3.3-5.554-1.253-3.408.854-7.715.944-12.958,4.917-5.4,11.071,7.145,5.19,9.254,4.093,1.938,6.647,7.562,11.328,7.405-4.771,2.441-7.3-4.7-11.8-5.553.4,1.661-.046,1.107-1.25.551a5.531,5.531,0,0,0-2.528-.551c-.23,1.992,1.72,1.865,3.32,1.74.848-.066,1.594-.134,1.873.111,5.151.81,3.678,8.119,9.442,8.329-1.087,1.276-3.594,1.012-4.723,0-1.042.679-.935,2.482-2.36,2.779,9.04,1.426,4.162,10.037-3.774,8.33-1.451-.311-2.525-2.08-3.778-2.313a7.625,7.625,0,0,0-3.317.351c-1.309.351-2.48.7-3.292.111-.217.987.676.883,1.419.927-.818,1.527-4.252,1-3.778-1.389,1.126-.97,3.025.111,4.249.462-.458-2.634-2.25-3.966-4.249-5.091-1.432,1.68,1.062,7.211-2.831,6.483,2.6-8.438.13-21-11.331-17.131-1.224,3.415-3.369,19.04,2.359,22.218-4.239.88-6.316-6.712-5.19-11.106-.347-.4-1.259-.235-2.333-.069a7.571,7.571,0,0,1-2.863.069c.646,3.867,4.122,7.689,1.889,11.568-2.285.37-3.428,1.678-5.66.927-.468,4.268,6.891,7.883,4.72,12.963-2.971-1.723-1.513-7.778-4.72-9.263.155,3.554.736,6.684.471,10.649-2.14.934-6.168,2.148-8.969.924.4-2.692,3.7-2.54,5.19-4.166-2.348-.334-4.982.274-7.752.877a32.194,32.194,0,0,1-6.881.979c-2.863,2.435-4.785,5.8-9.442,6.477v6.479h6.611c-3.749,2.426-11.652,4.912-17,2.779.69-4.051,7.595-2.533,9.442-4.169-1.2-.914-3.483-.31-5.977.3-2.911.706-6.108,1.409-8.186-.3.168-2.454,3.519-1.792,5.189-2.776v-1.852c-1.032-.792-3.288-.674-5.693-.557-2.651.127-5.485.257-7.05-.827-.63,6.171,4.486,6.712,8.024,8.794,7.984,13.121,9.962,37.156,4.719,55.077-3.34,22.987-13.687,51.791-31.154,62.941-4.911,3.14-13.4,4.549-18.882.928-10.442-6.895-13.062-26-12.272-43.046,1.555-33.57,15.72-67.089,36.822-80.07-15.406,2.037-24.378,19.952-30.687,37.956-9.7,27.683-13.215,60.245-8.966,93.491-.571.524-.86,1.321-2.363.929,3.834,52.859,5.146,108.2,8.5,161.53,2.552,3.1,8.554.066,9.913-.468,1.049,5.948-9.419,4.077-13.217,2.317-.478-25.757-2.266-50.231-3.3-75.444-.958-1.063-2.824-1.241-4.72-1.388-1.918,5.36,1.883,13.781-.948,18.513-4.813-2.218-1.263-12.645-2.356-18.513-4.95-2.556-12.848-2.214-18.407-4.166,3.885,28.283,10.37,56.478,13.217,84.236a12.314,12.314,0,0,1-2.531-.165,12.743,12.743,0,0,0-5.024.165c-6.661-4.614-6.369-18.086-8.024-29.158-3.291-22.045-7.537-46.95-10.857-68.964-10.988,5.738-24,9.488-37.293,12.96-.373,38.906-5.389,79.871-5.664,117.562a14.876,14.876,0,0,0,.474,4.166,4.609,4.609,0,0,1-4.53,3.52A7.981,7.981,0,0,1,12427.186,12884.241Zm88.271-118.023a9.066,9.066,0,0,0,5.2.923c-.4-17.2-2.006-33.2-1.89-50.909-9.712-.731-14.295,3.568-21.241,5.552-.957-2.455-3.077-3.771-5.667-4.625-1.432,7.8.743,19.082-2.356,24.066,2.193,6.791,2.979,14.971,4.716,22.215,6.407.658,12.471,1.661,18.414,2.778.325-15.286-1.431-31,0-45.82C12515.355,12733.921,12514.72,12750.744,12515.456,12766.218Zm-69.859-30.086c10.825-5.891,27.575-5.979,32.1-18.054-8.336-6.324-17.006-12.327-31.622-12.5C12446.34,12715.882,12444.8,12726.868,12445.6,12736.132Zm46.259-20.368a31.8,31.8,0,0,1,7.557,3.243c2.646-2.5,7.819-2.514,11.325-4.166-4.85-2.647-13.107-1.96-18.882-3.7Zm26.438-2.311c.087-10.279-.247-24.127-.945-35.176a45.6,45.6,0,0,0-23.6-3.238c-.964,10.79-1.405,24.528-1.418,34.71q.3,0,.592,0C12502.24,12709.744,12509.9,12713.15,12518.294,12713.453Zm-43.9-38.414c-9.806.72-17.229,3.778-24.549,6.942,4.019,12.115,17.473,9.91,24.549,3.239,19.278-18.186,33.355-66.882,22.66-102.75-1.334-4.468-4.538-15.242-8.5-12.5-1.577,1.884.191,5.474.475,7.87,3.726,32.2-8.657,61.446-18.886,82.846,2.3,6.061,11.972,1.246,14.637,5.555-4.019,6.133-14.354.923-17.94-1.849-2.532,6.051-15.724,17.1-20.768,6.479,2.428-.07,3.453,1.238,5.66,1.385,6.161-1.979,9.969-6.27,12.747-11.569-7.758-12.376-8.514-35.5-4.723-52.763-.507-.628-1.37-.146-2.3.33-1.01.522-2.1,1.047-2.89.134,1.042-1.445,4.062-.955,5.661-1.853,5.184-17.44,10.984-34.279,29.27-38.879-5.4-6.279-15.387-1.913-19.827,1.853-20.647,17.5-35.241,76.539-21.244,111.544,6.19-2.458,12.511-6.517,20.856-6.517A26.667,26.667,0,0,1,12474.392,12675.039Zm42.486-7.87c-3.723.723-9.909,2.278-9.445,5.089.451,2.7,7.966,2.766,10.387,5.1-.143-33.271,1.312-64.024,11.8-91.182,8.3-21.476,18.888-39.206,43.9-36.565-1.769-1.763,1.1-5.365-.474-6.94-4.07,6.651-13.715.01-13.688-6.019a9.862,9.862,0,0,1-5.044-.315c-1.7-.436-3.052-.871-3.454-.146,1.532-.493.191,4.046-.944,5.09-1.107-.764-1.1-2.626-3.775-1.85-.766.63.484,3.2,0,5.092,2.672-.626,5.489-3.558,7.551-3.242a51.724,51.724,0,0,0-8.966,5.1c-.351,2.587.468,6.317-2.359,6.479.032-2.282.925-3.724,1.415-5.557-14.257.878-28.86,7.15-42.483,1.852.546,10.3-10.611,4.831-16.521,3.705-1.549,1.722-2.094,4.427-1.89,7.867,13.2,2.953,17.771,14.354,19.823,28.233,2.5.476,6.33-.341,7.083,1.852-2.2-.306-4.295-.729-6.609-.926-.214,2.52.841,3.8.475,6.479,6.625-1.572,14.834-6.375,20.768-5.554-4.655,4.535-14.191,4.286-20.3,7.4a158.109,158.109,0,0,1-1.419,27.31c3.041-.146,6.875-3.791,9.442-1.391-.522,4.118-7.434,1.97-9.913,4.166-1.13,16.481-9.663,25.7-8.5,44.435a30.986,30.986,0,0,1,12.273.458c.247-4.152,4.346-6.252,8.478-6.252A11.944,11.944,0,0,1,12516.878,12667.169Zm38.234-108.769c-14.324,13.119-26.637,44.671-27.851,71.742-.749,16.654,1.1,38.306,13.218,41.654,13.7,3.79,23-12.626,28.795-21.291-5.417,2.825-11.854.423-15.106-2.776-2.736,3.332-8.371,9.51-14.633,10.182-2.331.252-7.752.713-8.024-3.241,1.532-1.354,3.3-1.011,5.181-.668a10.383,10.383,0,0,0,3.788.208c5.44-1.019,9.533-5.567,12.273-9.26-14.367-25.23-3.12-69.363,10.384-85.62,8.822,1.521,12.564,13.1,13.217,22.679,1.676,24.449-10.014,49.251-19.352,62.941,4.813,5.412,12.679,1.046,16.521-2.312,6.258-14.121,13.522-38.169,12.273-59.705-.4-6.894-1.282-15.1-4.249-20.83-1.331-2.565-4.282-4.559-4.249-7.868a14.573,14.573,0,0,0-8.041-2.517C12564.411,12551.718,12559.613,12554.278,12555.112,12558.4Zm-82.139,75.443c-1.915,3.52-7.1,3.835-11.329,5.092.653,7.079,2.185,13.288,5.668,17.588,8.572-15.353,14.2-33.6,17.467-54.152-2.98-.541-6.048.517-9.04,1.569-2.756.975-5.453,1.944-7.956,1.671,4.255-3.7,10.7-5.245,17.467-6.479.327-8.348,1.827-21.009-1.419-27.308-16.837,12.6-23.845,36.961-22.656,65.725,3.083-.891,6.282-4.27,9.584-4.27A4.616,4.616,0,0,1,12472.974,12633.844Zm80.25-47.672c-4.619,15.42-6.668,43.869,2.359,56,10.134-15.367,18.778-34.662,17-60.168A122.352,122.352,0,0,1,12553.224,12586.172Zm.471-1.387c6.807-.79,12.438-5.011,19.355-4.166-1.318-8.425-2.516-16.971-9.913-19.437C12559.793,12568.858,12555.47,12575.567,12553.694,12584.785Zm-140.2-22.683c1.393,2.339,2.012,5.432,1.886,9.261,2.555.678,5.888,2.206,8.969.926,3.294-7.421,6.631-17.259,6.138-26.849-3.337,2.913-12.448,2.4-16.521,1.854C12416.27,12551.18,12415.565,12558.592,12413.5,12562.1Zm174.185-6.016a18.691,18.691,0,0,0,9.913-1.384,15.348,15.348,0,0,0-4.445-.663C12591.03,12554.04,12588.836,12554.528,12587.683,12556.087ZM12481,12540.352a104.073,104.073,0,0,0,1.893,14.352c1.552-3.222,4.447-2.19,7.858-1.159,2.409.729,5.077,1.455,7.716.69a29.583,29.583,0,0,0,1.419-7.863c-3.39,1.3-11.18,1.839-12.747-1.388,3.859,1.849,10.757.54,13.218-1.855v-6.942c-4.733-1.186-10.874.1-14.162,1.853.84.258,1.96.239,2.362.924a23.505,23.505,0,0,0-3.112-.269A5.8,5.8,0,0,0,12481,12540.352Zm101.021,12.031c3.895,1.432,10.6-.653,12.275-1.388a2.63,2.63,0,0,0-1.048,0c-.682.085-1.367.171-1.314-.462a10.4,10.4,0,0,1,4.249.458v-3.7c-4.084.457-4.847-2.343-7.08-3.705.065,2.119,1.87,6.347,0,7.406-.665-.726.825-3.917-1.418-4.163-2,1.992,2,4.554-.945,5.089a1.42,1.42,0,0,0-1.581-1.44C12583.828,12550.48,12582.132,12551.476,12582.019,12552.383Zm-1.763-6.468c2.736.255,5.476.51,6.012-1.4-.747-1.149-3.3-.19-4.249,0,.3-1.711-.61-4.611.474-5.556.3,1.56-.61,4.3.471,5.092.126-.649,1.006-.561,1.886-.469a4.388,4.388,0,0,0,1.419,0c-.458-1.416-1.01-5.156,0-6.479.675,2.682-.354,4.287.47,6.944a1.144,1.144,0,0,0,1.662-.52c.292-.519.234-1.036-.243-.406-.377.782-.958-2.11-1.419-2.776,1,.949.906-.01.958-.97.039-.735.166-1.471.932-1.344-.367,2.059.63,2.779.474,4.628,2.714,2.075,8.81,4.631,11.332.462a3.4,3.4,0,0,0-1.233,0c-.782.089-1.568.176-1.6-.465,9.6,1.082,5.382-11.387,8.5-16.661-.029,4.449-1.987,9.461-.945,13.421.2-.885.173-1.993,1.416-1.852.513,1.184-1.436,2.208,0,2.777,4.316-1.473,9.026-2.568,13.691-3.7.37-2.677-.686-3.955-.471-6.477-3.457-1.174-6.216-1.878-8.972-2.777,1.646-3.483,2.774-9.928,1.415-14.812-4.5,1.562-6.135-2.391-2.831-4.628-1.058-.658-3.109-.345-3.3-1.853.36-2.329,7.861-3.322,4.72,0,.148-.626.672-.884.477-1.853-2.327-.117-3.823.577-4.249,2.314,1.74-.007,3.246.21,3.3,1.852-.065,1.789-1.915,1.827-2.36,3.24,1.974.535,4.369.789,5.193-.926.182-1.718-1.915-1.209-1.418-3.239,1.756-2.448,4.288-6.588,8.5-5.09a6.519,6.519,0,0,0-3.778.924,9.785,9.785,0,0,0,6.138-1.389c-.14,1.251-1.983.832-2.359,1.853,2.688,1.066,7.854-.3,8.968,2.313a38.273,38.273,0,0,1-5.664.927,25.112,25.112,0,0,0,3.3,6.48c.409-3.031-.7-5.291.941-6.48.3,1.557-.607,4.3.478,5.092-.205-1.279,1.759-.437,1.889-1.391-1.471-.1-.8-2.3-.948-3.7,4.623-5.273,19.175-5.413,19.83,3.24.438-1.42,2.613-1.14,3.3-2.314-4.353.016-5.421-10.12-2.359-11.571-2.756.678-6.385-.087-8.024-1.854-2.775.062-4.385,1.261-4.72,3.705,3.013.7,6.515.6,8.5-.926-1.278,2.629-6.258,3.5-9.916,2.314a5.765,5.765,0,0,1-5.19,3.7c-1.483-.872,1.14-2.407,0-2.775a10.327,10.327,0,0,1-4.129-.392,11.546,11.546,0,0,0-6.258-.073c-.114-.658-.779-.779-.945-1.388-.1-1.489.838-1.955.475-3.7-2.766.22-6.259-.271-6.609,2.313,2.113.394,4.052.958,5.19,2.314a11.886,11.886,0,0,1-3.535-.1,6.371,6.371,0,0,0-3.541.1c-1.2-4.529-4.811-6.706-11.335-6.016-3.774,3.319,1.074,7.2,2.363,8.328a14.708,14.708,0,0,1,1.659,0c1.227.045,2.45.093,3.063-.464,1.228-.623-.3-3.23.468-3.24,1.558.016,1.808,1.318,1.889,2.776-.97,3.421-5.713,3.469-8.965,2.313a24.737,24.737,0,0,0-2.363,6.944c6.054-1.722,6.661,6.674,4.723,9.719-1.119-2.3.137-6.925-1.418-8.793-.357.013-.737,0-1.117-.01-1.077-.028-2.155-.061-2.661.471-.448,2.76,1.562,3.1,2.837,4.166-2.922-.067-3.925-2.018-4.723-4.166a17.482,17.482,0,0,1-4.249,1.854,13.575,13.575,0,0,0,2.359,6.94c2.351-.169,7.151-.324,9.913.465-7.332.1-12.623.007-17.466.925-.228,1.611-.088,2.865,1.889,2.314.627-1.158-2.2-1.122-.474-1.853,1.113.144.282,2.194,1.889,1.853,6.657-.107,11.828-1.67,17.47-2.773-.788.925.036,3.43-.947,4.164-.279-.96.581-3.042-.475-3.243-4.681,1.735-10.364,2.486-16.519,2.776.328,5.079,2.721,10.6,1.415,15.741-1.106-5.087-.019-12.323-2.833-15.741-2.812,2.187-2.14,10.241-5.19,10.645,1.347-4.261,2.876-9.438,2.83-12.493-.068-.819-.39-.411-.707,0s-.64.814-.708,0c1.457-1.481,2.321-6.1,0-7.407-.613,1.149,1.055,2.247,0,2.313-1.2-.051-.938-1.549-.944-2.774a6.758,6.758,0,0,0-3.3,1.388c2.947,7.629.117,14.722-1.415,21.753-3.752-.427-4.161,4.859-3.778,6.94,1.636-1.18,4.044-4.042,6.138-3.236a10.424,10.424,0,0,0-4.72,3.7,6.946,6.946,0,0,1,1.646-.163C12578.378,12545.743,12579.316,12545.829,12580.256,12545.915Zm6.481-.009a5.364,5.364,0,0,1,.624-.02c.581.006,1.158.013,1.266-.446-.367-.1-.929-.01-.944-.457.37-.108.932-.014.944-.466h-1.89Zm35.878-14.812c-2.055.423-.866,5.637-1.418,8.794-2.5.331-4.246,1.388-5.19,3.24,2.8.124,5.307-.041,7.079-.924-1.428-4.817,3.243-12.76-1.889-13.888C12620.132,12528.952,12622.365,12530.226,12622.615,12531.094Zm-60.424,4.627c-.081,3.021,2.905,7.025,7.083,7.407,1.707-1.727,5.654-3.705,4.249-6.942-1.025,1.709-1.831,2.509-3.3,2.776-1.908.344-3.573-.653-4.924-1.646-1.164-.856-2.094-1.713-2.738-1.714A.594.594,0,0,0,12562.191,12535.721Zm-24.071,3.705c1.168.066,2.288.089,2.359-.926a12.853,12.853,0,0,0-2.359-1.391Zm.471-16.2c.4,6.676-2.954,17.3,5.664,14.811-1.655-.689-3.441-1.254-4.249-2.777,1.412-.694,2.977-.427,4.678-.159a12.789,12.789,0,0,0,4.294.159c-1.386-6.06-.607-12.075,0-18.514-3.862.229-7.618.558-9.442,2.777,1.272-.085.159,1.3,0,2.313-.243-1.154.016-2.793-1.415-2.776-.1,1.488.834,1.957.471,3.7,2.392-.738,4.157-2.09,6.608-2.775-.454,1.868-5.531,1.149-3.775,3.705a2.453,2.453,0,0,0-1.558-.79A3.5,3.5,0,0,0,12538.591,12523.228Zm3.778,12.958a35.107,35.107,0,0,0,6.608,1.853v-2.317a14.069,14.069,0,0,1-2.69-.006c-.556-.034-1.112-.067-1.633-.067A3.615,3.615,0,0,0,12542.369,12536.186Zm32.569.924c3.045-5.249,3.019-20.33-.474-24.99a31.985,31.985,0,0,0-11.328,1.389c-1.11,11.323-.513,29.095,11.328,21.753C12574.546,12535.95,12574.3,12536.97,12574.938,12537.109Zm-25.02-8.329c.078-3.571,3.256-9.049,0-11.568C12550.324,12521.165,12548.468,12525.344,12549.919,12528.78Zm69.866-3.7c-1.214.665-2.993.773-3.778,1.852,1.334,1.041,2.7.5,4.389-.038a8.94,8.94,0,0,1,5.051-.424c5.069-5.986-1.62-13.734-3.3-18.977a20.59,20.59,0,0,0-2.7,0c-1.691.07-3.386.143-4.383-.465-.233,3.8-2.158,13.605,0,18.978a4.929,4.929,0,0,0,2.432-.553,5.339,5.339,0,0,1,1.751-.572A.754.754,0,0,1,12619.785,12525.076Zm-8.027,2.317c2.256.225,1.067-2.4.471-3.241C12612.462,12525.613,12611.381,12525.785,12611.758,12527.394Zm-33.988-7.407c.23,1.8-.507,6.958.474,6.479-.218-1.721.443-6.51-.354-6.51A.276.276,0,0,0,12577.77,12519.986Zm49.565,6.019c.127-.651,1.035-.532,1.419-.929.074-1.462.016-2.791-.948-3.238C12628.419,12523.7,12626.459,12525.407,12627.335,12526Zm-41.067-5.092a2.5,2.5,0,0,0,1.1-.274,2.383,2.383,0,0,1,1.733-.19c.205-2.11-.477-5.1.471-6.479h-5.664A13.149,13.149,0,0,1,12586.268,12520.913Zm5.664-.465a4.558,4.558,0,0,0-1.416-2.775C12590.655,12518.927,12589.851,12521.1,12591.932,12520.448Zm71.281-.462c.753-.341-.107-2.267,1.418-1.853,1.137-.359,1.4.141,1.665.637.221.418.438.834,1.166.754.766-.795,2.963-.18,2.83-1.852-1.052-3.083-3.989-2.325-7.089-1.569a14.845,14.845,0,0,1-4.71.644c-1.2-1.289-1.127-3.835-1.89-5.554-1.081-.388-3.5-.678-1.889-2.313-1.694,1.205-4.5.274-4.72,3.7,2.022,1.722,4.473,3.02,5.664,5.553a14.179,14.179,0,0,1,1.837-.127A8.544,8.544,0,0,1,12663.213,12519.986Zm-84.97-4.166c-.056,1.258,4.073-.77,4.72-1.852C12580.911,12514.118,12579.977,12515.359,12578.243,12515.82Zm88.748-6.94c-4.013-1.076-7.073-6.2-11.806-3.7-.341,1.413.483,1.686.474,2.777,1.8-.073,3.438.022,4.249.927-1.587-.169-.785,2-1.415,2.774.441,1.251,2.126.831.471,1.854.464,1.24,2.973.479,3.778,1.388-1.574.766-3.246.11-4.72-.462C12660.918,12519.035,12666.575,12512.635,12666.991,12508.88Zm-38.708,5.089a6.4,6.4,0,0,0,4.719,0c-.317-3.084.912-4.659.941-7.406-.36.013-.743,0-1.126-.007-1.074-.028-2.146-.058-2.646.472-.636,2.781,1.412,2.935.941,5.554a2.587,2.587,0,0,0-1.19-.358C12629.075,12512.223,12628.609,12512.94,12628.283,12513.969Zm-30.214-12.034c-2.743,3.177-8.1,3.787-7.083,10.646,1.944-.717,4.133-1.193,5.665-2.313-.237-3.628,1.954-4.873,2.362-7.868a.651.651,0,0,0-.711-.481A1.68,1.68,0,0,0,12598.069,12501.935Zm-34.459,4.628c-.257,1.753-1.143,2.894-.944,5.092a48.514,48.514,0,0,1,11.328-.926c-.468-2.161-.958-4.306-2.359-5.553-.5-.048-.979-.07-1.434-.07A18.514,18.514,0,0,0,12563.61,12506.563Zm49.565,2.779c-.513-1.186,1.435-2.206,0-2.779C12612.511,12507.171,12611.479,12509.017,12613.176,12509.342Zm.945-3.241a18.5,18.5,0,0,0,7.076.927c-.135-1.484-1.655-1.976-3.259-1.976C12616.243,12505.052,12614.456,12505.6,12614.121,12506.1Zm-22.66.927c.1-.52.525-.72.944-.927a2.036,2.036,0,0,0-.944-1.853C12591.087,12504.574,12590.409,12506.833,12591.461,12507.027Zm57.593-2.779c.7.4.682,1.493.941,2.314a2.513,2.513,0,0,0,2.359-2.775,4.318,4.318,0,0,1-1.415-.007c-.306-.031-.612-.062-.888-.062C12649.537,12503.719,12649.134,12503.828,12649.054,12504.248Zm-26.909,1.392c.75,1.707,3.967.6,5.19,0a6.4,6.4,0,0,0-2.933-.563A3.351,3.351,0,0,0,12622.145,12505.64Zm42.146-.541c.786.633,1.464,1.267,2.227.541-1.045-.544-2.707-2.87-4.249-1.392a1.705,1.705,0,0,1,.21-.013A3.028,3.028,0,0,1,12664.29,12505.1Zm-72.829-1.775c1.214.048.672,1.812,1.886,1.853.905-2.048,3.479-2.454,4.249-4.628-2.243-.194-3.405.671-5.19.926.272,1.6.328,1.572.022,1.544a1.408,1.408,0,0,0-.142-.009A1.38,1.38,0,0,0,12591.461,12503.323Zm59.952-1.389c1.172.07,1.458-.728,2.36-.925.1-1.8-.5-2.9-1.89-3.241C12652.764,12499.373,12651.657,12500.235,12651.413,12501.935Zm-21.719-1.852c2.064-.91,4.224-1.723,3.778-5.089a6.748,6.748,0,0,1-1.714-.182,3.147,3.147,0,0,0-2.535.182c-1.7-4.236-11.429-5.764-13.217-.927,1.609-.2,3.895-1.095,4.72.461v4.167c.752-.044,1.486-.067,2.2-.067C12625.677,12498.628,12628.053,12499,12629.694,12500.083Zm4.249-1.85c1.568-.162,2.049-1.388,2.834-2.313h-1.886C12634.408,12496.528,12634.424,12497.627,12633.943,12498.233Zm25.491-1.388c1.119.958,2.732-.4,4.249-.464-.186-3.062-.789-5.707-3.3-6.48a5.8,5.8,0,0,0-1.418,5.093c.155.438.778.427,1.4.414.662-.014,1.324-.025,1.428.512-.255-.016-.508-.028-.748-.028C12660.187,12495.892,12659.49,12496.055,12659.435,12496.846Zm-7.551-2.317c-.275,1.878,1.941,1.474,2.36.466a2.846,2.846,0,0,0-1.718-.511A4.945,4.945,0,0,0,12651.884,12494.528Zm-25.49-7.866v1.852c.909.182,1.363-.373,1.36-.926a.954.954,0,0,0-1.025-.961A1.678,1.678,0,0,0,12626.394,12486.662Zm-6.608.465c.814.8,2.918.512,3.3-.465a2.829,2.829,0,0,0-1.762-.513C12620.53,12486.149,12619.788,12486.416,12619.785,12487.127Zm2.83-4.631c.426,1.658,1,1.213,1.938.77a3.161,3.161,0,0,1,2.312-.306c.008-.8-.553-1.044-1.278-1.044A17.882,17.882,0,0,0,12622.615,12482.5Zm-318.633,391.561a193.865,193.865,0,0,1,0-30.085c.38-.395,1.292-.274,1.415-.923.763-.13.812.436,1.415.461.306,6.61-2.33,19.1-1.415,25.919.324,2.444,1.438,5.93,5.193,4.166,2.419-7.966-.159-20.826,3.775-27.306,1.055,8.545-.429,18.325-.474,27.306a8.9,8.9,0,0,1-5.654,2.389A5.615,5.615,0,0,1,12303.982,12874.057Zm-295.035-6.016c.331-41.1-2.467-87.951,0-129.595-5.811-1.4-11.433-2.984-17.937-3.7-.236,38.7,3.665,83.7,1.89,125.433,4.4,4.166,13.055,4.166,16.048,9.72-6.66-1.649-12.149-4.443-17.937-6.947-1.094-1.061.225-2.127.941-2.772-3.59-39.219-2.506-83.015-4.72-123.581.063-1.482,1.071-2.036,2.834-1.852a9.859,9.859,0,0,0-9.442-1.85c-1-5.19-2.285-10.1-3.3-15.275-3.253-.058-6.625-.013-10.021.028-13.478.166-27.312.334-35.3-5.579.643-7.893,8.667-12.164,17-14.816,9.088-2.89,17.534-5.291,27.376-4.627,1.419-18.046-1.178-40.03,4.72-53.687,15.629-3.962,33.061-6.158,50.04-8.793-4.253-1.849-10.65-1.59-15.107-3.244,6.207-1.615,13.884,2.312,21.242,2.317s13.1-3.224,18.882-5.091c1.438-3.218-.951-10.191,2.362-11.568-.379,4.693,1.12,10.006.471,13.421-1.5,2.071-5.463,1.743-7.553,3.238a63.37,63.37,0,0,0,17,0c-.562-1.919-4.558-.466-5.194-2.317-.23-3.978,1.795-9.616,3.3-13.42,3.116,2.272.166,9.014.944,11.571,2.441-.843,1.549-6.212,1.415-9.254-.139-3.307-.444-7.132-1.415-9.259-1.57-3.443-6.271-5.823-7.553-10.181-1.454-4.943-.416-8.629-1.89-14.348-2.369-1.229-6.118-1.1-9.439-1.39.007,5.394.932,13.9,1.416,20.364,1.5,1.579,2.362,3.794,4.723,5.089,4.054,2.234,12.37,1.528,11.8,5.558-.669,4.739-10.03-1.709-13.214-1.853-8.089-3.724-6.9-18.742-6.142-29.62a2.77,2.77,0,0,0-3.129-.4,3.612,3.612,0,0,1-3.006-.063c-1.377-16.947,2.3-32.908,16.992-35.639-.419-1.133-2.632-.5-2.359-2.313h.944c6.628,1.619,10.972,4.354,15.106,10.181,2.351,3.313,5.372,8.259,3.775,11.574,1.993-.207,2.545-1.826,5.193-1.393a11.1,11.1,0,0,1,1.415,6.479c1.214-1.588-.188-5.735.945-7.4,7.445-.63,17.249-3.444,22.656.461-2.918,1.2-7.189,1.079-11.461.958-3.51-.1-7.021-.2-9.78.433.769,14.809-3.648,33.5,8.5,38.879-.1-7.915.146-17.618,0-24.067,4.054-.417,9.4-2.547,15.58-2.313,1.088-6.813-2.513-11.381-1.418-16.664,3.269,2.317,2.94,10.232,3.778,16.2.243,1.757,2.148,3.026,0,3.7.386.691,1.016.48,1.59.274.546-.2,1.046-.4,1.24.187,1.493,12.3.944,29.615.944,44.437,0,3.4,1.113,7.788-1.415,10.181-2.6-3.112-1.419-8.183-1.419-12.494,0-12.553-.379-27.7.471-39.806-1.94,10.229-4.992,21.289-13.214,25.458,2.084,5.665.782,14.656,2.359,20.827,2.863,2.846,11.05,2.757,10.384,7.867-.759,5.843-16.278,5.372-19.352.462-.208-9.307.837-17.383.471-26.843-7.184-.62-14.909-2.829-21.242-2.778-.5,2.444.328,7.314,0,11.107,3.087.845,6.742.07,10.209-.7,3.489-.775,6.794-1.553,9.144-.684-2.509,4.984-13.312,3.938-19.353,2.778-.263,4.265.591,7.445.944,11.107,1.182.062,2.464.028,3.75-.006a21.152,21.152,0,0,1,6.635.468c4.469,8.745-9.907,9.952-14.633,6.019,1.271-1.768,3.7-1.4,6.141-1.025,2.727.414,5.467.828,6.605-1.754-3.333-5.24-10.436-.9-16.051-.462a59.075,59.075,0,0,1-19.355-1.852c-21.093,2.616-42.782,7.114-64.2,7.867-3.132,26.213-6.368,67.548,1.89,90.717,7.783,3,18.019,2.922,27.851,5.558,5.674,1.518,10.286,3.918,15.577,4.627,9.68,1.3,19.758.5,31.154,1.388,10.923.855,21.469,4.353,32.1,5.092,1.253-9.073-2.841-18.72-3.775-29.161-.908-10.2.916-22.527,1.415-33.325.536-11.561.033-21.369,5.665-28.694,26-7.267,56.044-12.643,83.554-18.975,3.457-.8,8.054-3.008,11.332-.465-.607,4.188-7.119,2.59-10.388,4.166,1.406,1.406,3.655,5.982,8.969,5.092.052-2-5.638-2.107-6.138-5.092,3.044,2.26,7.339,3.3,12.276,3.7-4.1,7.4-14.782,1.761-17-3.24-25.4,4.717-49.523,10.685-75.057,15.273,22.485,3.562,47.339,4.806,69.393,8.794,1.052,11.931,1.967,23.99,2.833,36.1,35.628-9,71.727-18.569,107.63-27.306,11.951-2.913,23.689-6.6,35.874-7.871-.854,3.631-5.531,3.067-8.023,3.705-44.95,11.424-93.007,23.682-138.784,33.321-2.165-10.524-.341-24.965-.945-37.026-24.6-3.183-50.578-5.02-74.585-8.794-6.058,7.177-4.4,21.915-4.717,34.717,12.24,1.864,26.205,3.318,40.123,5.088,13.575,1.731,27.688,3.183,39.179,6.942-1.678,3.108-6.722,1.705-9.442,1.39-22.017-2.559-46.28-7.45-68.918-10.185-2.467,12.206-.272,23.335,1.89,34.255,1.613,8.167,4.145,16.966-.471,20.826-18.3-2.755-38.335-6.316-59.956-6.479-1.017,7.787.772,16.828.474,25.454,1.143-2.677,3.989-9.729,1.418-11.572,3.652-2.432,3.025-9.067,5.19-12.956,1.444,3.119-.792,6.62-.471,10.181,10.647-.366,23.634-4.9,34.934-4.628,1.979,1.993-2.01,3.072-.475,4.628.614,5.726.812,11.935,1.419,18.049.535,5.438,3.259,11.594.468,15.737-4.373-.478-2.3-5.021-2.357-7.867-.148-7.991-1.58-18.974-1.889-26.844-9.783.588-21.66,3.137-32.57,4.165-1.8,7.642-3.22,15.668-4.72,23.605,24.491,5.764,50.754,9.783,76,14.809,2.567-29.879.834-63.978,4.249-93.03,2.116,29.936-1.224,62.636-1.419,93.5,11.565,2.857,24.988,4.662,37.3,6.944,3.668.674,8.546.754,10.857,3.7-10.325.544-20.888-2.6-31.158-4.631-30.808-6.075-63.539-11.654-93.937-18.514-.228,0-.461-.007-.691-.01-1.059-.024-2.117-.048-2.616.475a33.427,33.427,0,0,0-5.19-2.316c-2.6,1-4.785,2.405-7.554,3.24,44.178,8.338,89.043,16.3,134.539,24.531,2.438.442,5.939.392,7.55,2.775-1.506,3.221-5.908.874-8.024.464-38.718-7.466-80.49-15.389-119.9-23.14-5.716-1.124-11.824-1.952-16.524-5.093,2.041-3.563,8.987-5.989,12.746-3.7,1.36-12.135-.675-24.948,0-37.952-7.475-.851-14.337-2.3-19.826-5.093,1.757,40.091,1.123,86.529,2.36,128.667,6.1-2.808,10.73-7.061,16.521-10.182.357-13.534-1-28.742,1.415-40.267,4.188,4.879,1.779,13.9,2.36,21.753.363,4.867.707,13.16.474,18.978-7.537,3.718-13.451,9.026-20.771,12.96A3.658,3.658,0,0,0,12008.947,12868.041Zm-59.479-168.009c-6.044,2.047-13.468,5.385-15.578,11.565,10.4,5.656,29.655,3.1,42.483,2.781-.143-7.236.075-14.12.474-20.826C11966.789,12694.106,11957.752,12697.229,11949.469,12700.032Zm145.393-91.181c.039,9.373-.233,19.05.471,27.771,3.041,2.122,11.27,2.065,13.221-.927-3.3-2.012-7.164-3.469-9.916-6.019-1.507-6.928.691-18.1-.941-23.605,5.012-6.192,10.315-12.1,10.857-22.68a15.645,15.645,0,0,1-14.165-3.7c.75,9.6-1.351,22,3.308,27.771-.013,1.14-.9.961-1.685.779a4.057,4.057,0,0,0-.784-.132C12094.891,12608.111,12094.707,12608.273,12094.861,12608.852Zm-13.873-3.342a51.852,51.852,0,0,0,11.043.1c-5.347-2.781-8.206-8-10.388-13.886a53.184,53.184,0,0,1-7.553,13.424h.116C12076.476,12605.149,12078.735,12605.331,12080.988,12605.51Zm-5.956-27.205c-1.974,3.921-9.855,2.06-14.633,3.239.36,10.293,2.567,18.775,9.916,22.215,3.074-6.857,3.464-16.349,5.19-24.532,2.714,4.046,1.344,12.432,1.418,16.665,5.833-6.764,4.707-20.894.941-29.158,1.237,1.11,1.545,1.919,1.416-.927-5.295.634-16.961,1.393-20.3-2.775,1.737-.923,4.139-.293,6.781.341,2.827.675,5.934,1.35,8.8.123-6.08-2.9-8.1-17.073-14.636-18.055-10.273-1.54-15.947,19.211-15.107,30.551,3.172-1.678,8.719-1.021,12.751-1.854.3-2.781-.627-6.782.467-8.793,1.483,1.941,1.243,5.57,1.419,8.793,3.362.87,8.815-.314,9.913,2.776-2.782-.968-7.726-1.43-9.913.464,1.519,1.954,4.605,1.293,7.761.631a23.719,23.719,0,0,1,4.618-.663A4.833,4.833,0,0,1,12075.032,12578.3Zm22.189,0c.788,3.087,11.637,4.882,11.331-.462-.781-.045-1.537-.064-2.271-.064C12103.083,12577.778,12100.256,12578.142,12097.222,12578.3Zm-44.052-.159a11.413,11.413,0,0,0,4.4.159c.359-3.163-6.9-1.168-8.5-.462q.335-.022.68-.022A24.624,24.624,0,0,1,12053.17,12578.146Zm481.172,203.807c-.857-21.062-1.7-42.452-2.36-62.945.117-.5.938-.315.944-.929.764-.127.812.438,1.416.467.817,40.806,4.427,84.391,3.3,124.965C12534.491,12824.083,12535.205,12803.1,12534.342,12781.952Zm-387.555,53.69c-29.778-5.607-61.414-10.629-92.049-16.2-12.494-2.269-24.9-3.81-36.352-6.938-.4.083-.444-.182-.471-.462-.075-.54.1-.827.471-.929,45.651,5.57,91.8,16.565,137.369,23.141,2.249.325,6.472-.446,7.553,2.778a6.052,6.052,0,0,1-4.191,1.4C12155.395,12838.431,12150.778,12836.393,12146.787,12835.643Zm167.105-11.109c.532-11.477-.156-25.1.947-36.1v-1.387c.546-.076.838.1.941.462.422,14.767.63,33.321-.941,47.672C12311.89,12832.839,12313.733,12827.95,12313.893,12824.533Zm-296.447-21.754c.185-5-.724-10.244,0-14.812.513.113.321.919.941.929-.675,7.063,3.463,16.041.474,20.827C12015.595,12809.247,12017.342,12805.649,12017.445,12802.779Zm583.454-16.2c-1.116-39.238-1.982-84.937-1.886-126.816,2.419,22.533,2.694,47.2,2.831,71.741.136,24.519,2.4,49.076.947,71.739C12599.241,12798.668,12601.059,12792.06,12600.9,12786.58Zm-246.41,9.258c11.095-3.949,24.884-8.621,35.878-12.959,7.894,3.348-5.146,6.626-8.969,7.867-12.2,3.959-27.247,8.965-37.3,10.649C12345.991,12797.853,12350.89,12797.121,12354.489,12795.838Zm-32.524-7.331c1.929,1.528,2.761,6.012,2.785,9.645C12323.872,12794.89,12323.536,12791.091,12321.965,12788.507Zm-203.028-1.462v-82.386c.76-.133.812.437,1.415.462.205,29.376,1.912,63.031.471,92.107C12117.359,12795.317,12118.937,12790.237,12118.937,12787.045Zm-38.708-13.424c-.669-7.193-1.694-13.533-1.889-21.289v-1.388c.548-.076.84.1.944.462,1.444,12.2,4.362,27.759,3.778,38.879C12080.105,12786.331,12080.771,12779.458,12080.229,12773.621Zm241.647,14.817.044-.007.045.075Zm-1.375-.471a2.309,2.309,0,0,1,1.375.471,1.206,1.206,0,0,1-.171.013C12321.141,12788.451,12321.046,12787.993,12320.5,12787.968Zm-345.542-5.089c-12.614-2.62-27.039-5.565-39.182-8.794-.549.073-.838-.105-.945-.464-.074-.538.107-.825.475-.927,12.5,1.136,27.662,4.478,40.6,6.944,3.96.754,9.491-.066,11.8,3.7a5.347,5.347,0,0,1-3.842,1.271C11981,12784.612,11977.556,12783.42,11974.959,12782.879Zm76-.465c4.784-3.071,14.691-5.892,20.771-4.628-1.038,3.049-6.093,3.047-9.439,3.705a46.181,46.181,0,0,1-8.394,1.326A9.808,9.808,0,0,1,12050.96,12782.414Zm397-9.72a2.027,2.027,0,0,1,.944-1.85c11.046,2.137,23.423,6.957,34.93,10.182C12471.827,12780.147,12458.89,12776.169,12447.957,12772.694Zm-346.487-6.941c0-5.271-.979-10.941-.471-16.2-.344-1.67-3.6-.483-4.723-1.388.065-2.095,2.51-1.862,4.723-1.853.023-12.934.279-25.646.945-37.952,3.477,9.7,1.681,24.579,2.359,37.026.964,1.553,5.2-.238,5.661,2.778-.357,2.763-3.372,1.489-5.19.923-.049,3.893,0,9.86,0,15.738,0,5.444,1.441,12.278-1.889,14.812C12099.14,12776.662,12101.47,12770.539,12101.47,12765.753Zm25.491,2.313c-.52-.8-1.36-.537-2.188-.272-.795.25-1.58.5-2.061-.187.7-1.783,2.967-2.028,4.72-2.779,1.47-9.051,2.817-18.221,4.723-26.841a10.048,10.048,0,0,0-4.009.708,9.853,9.853,0,0,1-4.489.679c1.9-2.3,5.95-2.5,8.969-3.7a33.217,33.217,0,0,1,1.415-7.871c-2.655-2.333-8.988-1.061-11.328-3.7.87-1.794,3.742-1.319,6.631-.845a17.634,17.634,0,0,0,4.7.379c2.5-5.569,2.587-13.51,4.723-19.437h1.415c.2,7.288-1.732,12.492-1.889,19.437,5.009,2.339,14.535.255,17.94,4.166a6.607,6.607,0,0,0,1.682-.276c1.139-.28,2.359-.561,3.038.276-1.974,3.481-7.223,3.966-11.328,5.092-4.33,1.184-9.027,2.339-13.218,3.239-1.717,8.5-2.951,17.474-4.249,26.382,8.854-1.506,19.1-8.1,29.266-8.33.594,3.527-3.931,3.921-6.135,4.628-7.459,2.388-16.227,4.9-23.6,7.406-2.133,3.771.133,11.852-4.72,12.956C12123.89,12777.1,12126.591,12771.132,12126.961,12768.066Zm9.442-33.786c4.365-1.271,8.907-2.374,12.743-4.166-3.668-1.028-7.917-1.5-11.8-2.313C12137.374,12730.3,12136.611,12732.021,12136.4,12734.28Zm156.718,37.488c-8.215-1.366-15.788-3.984-23.127-5.551-12.929-2.759-26.887.334-36.819-6.479,1.961-.774,2.788.968,4.246,1.387,9.5,2.74,21.167,1.127,32.1,3.24,7.485,1.448,15.5,4.186,23.6,5.554,8.583,1.449,17.415.257,24.55,4.166a34.147,34.147,0,0,1-4.768.316C12306.411,12774.4,12299.629,12772.852,12293.121,12771.769Zm17.94-3.237c-12.211-1.744-23.7-5.891-36.348-7.406-8.388-1.006-17.447-1.972-26.436-2.777-8.437-.757-18.372.489-24.546-4.627,1.688-11.665,14.02-12.534,24.546-16.662,22.537-8.841,45.012-17.756,74.111-13.886-1.736,2.13-4.537,2.009-7.072,1.888-.834-.039-1.643-.076-2.37-.035-23.4,1.295-42.648,7.233-60.891,14.81-9.354,3.883-19.027,4.264-24.078,12.032,16.239,3.18,34.18,3.689,50.51,6.019,11.916,1.7,21.81,5.78,34.934,7.406a19.256,19.256,0,0,0,2.928.009c2.938-.13,6.255-.26,7.456,2.766a7.9,7.9,0,0,1-5.1,1.592C12316.094,12769.658,12313.361,12768.86,12311.062,12768.531Zm-339.878-19.9c-.207-4.4.153-8.9,0-12.956v-1.392h1.415c1.049,3.841,1.387,9.262,1.887,14.348.461,4.649,2.7,10.63-.471,12.959C11970.862,12760.269,11971.362,12752.466,11971.184,12748.628Zm510.288-16.661c-.075-14.227-.993-30.3-.945-44.9v-1.384c.552-.08.841.1.945.458,1.311,13,1.824,28.252,2.833,42.118.318,4.4,1.685,9.147-.474,12.5C12480.166,12739.679,12481.491,12734.923,12481.472,12731.967Zm-525.395-1.853c-8.783-1.9-17.626-3.24-24.075-6.941,1.091-1.861-.393-6.251,1.889-6.941-.133.745.445.8.471,1.386-1.052-.984-1.035,1.221-.944,3.7,12.033,5.174,26.568,7.893,42.486,9.255a13.713,13.713,0,0,1-7.27,1.951C11964.413,12732.527,11960.172,12731,11956.077,12730.114Zm656.151-20.365c9.634-3.72,23.04-8.922,31.628-12.03a2.267,2.267,0,0,1,2.831,1.385c-1.834,3.29-6.515,4.281-9.91,5.556-3.646,1.376-7.229,2.786-10.854,4.166-7.342,2.789-15.227,6.034-22.66,6.938C12603.75,12712.083,12608.693,12711.118,12612.229,12709.749Zm-74.583,1.387c3.743-2.188,7.326-4.541,12.273-5.553-1.164,3.66-5.848,5.707-10.238,5.707A13.2,13.2,0,0,1,12537.646,12711.136Zm-192.125,0c.306-8.87,10.374-9.365,20.3-11.572,4.777-1.062,7.738-4.392,12.27-2.317-.062,1.069-.568.89-1.2.711a1.506,1.506,0,0,0-1.626.22c-3.467,4.5-11.731,3.845-18.411,6.018-5.266,1.709-6.368,6.941-11.3,6.941Zm0-8.332c-3.1-.153-7.849-1.744-6.612-5.558,3.467-.595,4.106,2.49,7.55,2.782,9.437.795,15.636-10.84,20.3-16.2-22-19.7-14-77.426,6.611-94.882,3.571-3.031,8.979-5.739,14.159-4.628-1.159.865-3.232.836-4.72,1.387,4.467,4.233,6.988,12.764,7.554,20.827,1.938,27.88-9.822,57.7-19.826,74.982,10.2,5.917,16.544-4.469,23.6-7.408.851,9.006-16.281,16.078-25.017,10.645-5.5,5.644-12.472,18.066-22.948,18.068C12345.96,12702.824,12345.744,12702.818,12345.524,12702.808Zm23.6-22.679c9.731-19.367,21.1-46.052,18.882-75.905a31.878,31.878,0,0,0-6.138-17.126c-.474,0-.562-.375-.944-.461C12356.395,12599,12345.9,12659.441,12369.125,12680.129Zm37.29,17.121v-2.313c7.287-.941,16.57.09,19.826,4.631C12421.376,12696.85,12411.453,12698.507,12406.415,12697.25Zm27.851-13.42c-3.464,3.236-7.1,6.314-10.384,9.723C12423.661,12688.448,12429.494,12685.549,12434.266,12683.83Zm-468.275-5.553c-10.328-2.213-22.374-2.745-32.57-5.094v-1.387c13.26,1.047,28.887,3.765,42.013,6.48-.86,1.722-5.076.092-7.082,0-1.5,2.644,1.051,10.571-.941,13.424C11963.67,12690.688,11965.912,12681.507,11965.99,12678.277Zm579.209,6.479v-1.853c6.563.818,9.618,5.074,14.162,7.867C12554.727,12690.535,12550.084,12686.3,12545.2,12684.756Zm66.562,5.1c1.49-1.785,4.058-1.613,6.421-1.442a16.115,16.115,0,0,0,3.016.048c7.79-.992,14.1-6.065,18.881-9.719-4.512-11-21.562-9.711-30.681-16.2,2.577-2.188,10.131,2.646,17,5.089,5.771,2.057,15.4,3.709,15.106,10.647-.233,5.408-15.385,11.821-26.294,11.821A22.51,22.51,0,0,1,12611.761,12689.852Zm-80.724-9.262c1.169-.569,3.7.815,5.193,1.388a3.6,3.6,0,0,1-1.867.4C12532.828,12682.378,12531.035,12681.832,12531.037,12680.59Zm-607.06-41.654c-.133-.747.445-.795.475-1.387.548-.077.837.1.941.461.5,5.328.6,12.158.944,18.975.295,5.8,2.739,13.461-1.886,15.273C11920.981,12663.248,11924.952,12650.073,11923.978,12638.936Zm427.682,20.828v2.313c-5.534-1.48-10.761,2.724-14.637,2.778C12340.467,12661.749,12345,12659.716,12351.659,12659.764Zm-36.819-26.382c3.863-.785,8.31-2.1,12.27-1.39-.912,3.577-6.057,2.829-8.5,3.239-48.745,8.243-97.964,20.14-148.224,27.771C12216.27,12652.139,12267.018,12643.061,12314.84,12633.382Zm46.732,26.847c3.136-2.361,9.481-3.924,13.218-4.167-.5,3.261-5.155,4.868-9.168,4.868A10.544,10.544,0,0,1,12361.572,12660.229Zm239.327-53.691c2.507-19.166,10.255-43.706,21.245-58.314,4.992-6.643,10.987-12.808,20.3-11.113.779-2.32.461-5.716,1.886-7.4-.087-.311-.859-.181-1.791-.051a7.116,7.116,0,0,1-2.458.051c-1.415-1.543-1.521-4.368-1.411-7.409.035-.6-.6-.537-1.237-.474-.763.073-1.522.146-1.126-.913,1.071-.9,1.977-.468,2.935-.032a4.163,4.163,0,0,0,1.788.5c-2.119,1.284.088,4.311,0,6.479a4.675,4.675,0,0,0,3.474-.776c1.013-.6,1.862-1.194,3.135-.615-.4,3.44-5.537,10.469.941,11.108-.451.945-1.808,1-3.3.929,1.772,1.808,3.123,4.033,4.72,6.015,4.009-.9,4.255-8.949,7.554-12.036-1.1-1.238-2.38-2.292-2.834-4.162-.357-1.741,2.506-.319,1.889-2.314,1.691.038,2.73.72,4.249.923-1.139-.614-.486-3.409,1.89-4.166-1.922,2.292-.809,2.871.471,5.1,1.72-2.079,2.977-1.655,4.85-1.231a10.878,10.878,0,0,0,3.648.3,4.423,4.423,0,0,1-3.3,1.392c.155,2.467-.588,4.051-.944,6.018,2.041,0,3-1.075,5.193-.929.922,1.136.471,3.893-.475,4.63a10.392,10.392,0,0,1,4.249,2.313c-.788.679-1.541.255-2.473-.164a3.918,3.918,0,0,0-3.191-.3c-.52-2.67,1.854-2.5,1.415-5.089-.678-.649-1.759-.3-2.895.055a6.074,6.074,0,0,1-2.295.407c-1.02-2.5-.007-4.243.941-6.019a2.781,2.781,0,0,0-2.5.433,2.721,2.721,0,0,1-2.22.5c.123-1.358-1.065-1.422-.945-2.777a36.166,36.166,0,0,0-6.135,1.387c.188,1.206,1.406,1.4,1.416,2.774,1.055-1.342,1.594-.8,2.213-.269a1.563,1.563,0,0,0,1.441.539c-5.339,2.814-3.217,12.941-9.319,15.007,1.013,5.328,2.876,9.831,2.831,16.2-.088.395.185.437.471.464,2.876-.894,6.823-3.182,9.445-2.777a79.619,79.619,0,0,0-9.445,3.239,133.7,133.7,0,0,1-.471,16.662c-2.834,25.591-9.979,56.5-25.961,71.741-2.76,2.629-6.943,5.644-10.854,6.015-.458.045-.906.065-1.342.065C12598.633,12658.442,12598.844,12622.3,12600.9,12606.537Zm30.685-64.8c-17.048,12.377-27.1,51.946-28.321,79.144-.736,16.385,4.08,41.811,19.353,32.861,8.024-4.7,14.094-16.827,17.463-25.454-2.875,5.021-12.055,11.794-17.934,5.553-2.918,4.349-15.626,8.129-15.1-.458,3.146.152,3.6,2.874,6.609,2.772,2.957-.1,5.086-3.229,6.605-5.554-6.8-17.154-.416-40.839,4.72-56,3.791-11.189,8.079-21.6,14.165-26.377-.454.942-.968,1.83-1.419,2.776,3.908,2.627,5.246,7.465,5.665,12.5,2.112,25.211-9.479,52.338-18.882,68.035,8.021,5.723,10.725-6.528,17.937-7.405,5.538-15.757,11.894-38.039,10.388-59.706-.588-8.418-3.422-15.288-5.665-21.291a9.473,9.473,0,0,0-7.911-4.069A13.152,13.152,0,0,0,12631.584,12541.74Zm-8.5,86.089c9.008-14.519,18.885-37.561,18.885-59.706,0-6.139-.678-13.01-5.193-15.74-2.531,6.162-5.748,11.646-7.554,18.513a13.76,13.76,0,0,0,5.239-1.247c2.068-.812,4.019-1.627,6.093-1.063-4.362.1-7.793,3.4-11.8,2.311C12623.966,12586.188,12616.9,12609.2,12623.086,12627.829Zm-234.608,26.841c.806-2.29,3.123-3.105,6.135-3.238.388,2.683-2.1,3.435-4.254,3.435A8.769,8.769,0,0,1,12388.478,12654.67Zm-193.069-9.72c2.59-3.452,9.725-.292,15.106.466,5.126.723,13.578-.229,13.688,5.09-.85.076-1.73.112-2.636.112C12213.2,12650.618,12202.713,12647.513,12195.408,12644.95Zm212.9,5.556c.02-2.661,5.2-4.077,9.443-5.556,5.125-1.784,11.052-5.135,14.633-2.773-1.676,3.669-7.326,4.2-11.329,5.553-3.647,1.228-7.781,2.853-11.426,2.854A10.913,10.913,0,0,1,12408.3,12650.506Zm-205.342-9.256c-4.019,3.472-11.075.089-16.052-.926.556-.78,1.272-.484,2.11-.188a3.146,3.146,0,0,0,2.139.188c.834-1.153-2.648-2.015-2.359-4.166,4.252-4.94,11.99,1.068,14.162,4.166,5.569-.038,11.056,1.374,16.521,2.313,4.311.741,9.849.238,11.8,3.705l-.506,0C12221.5,12646.346,12211.474,12643.372,12202.962,12641.25Zm-12.273-3.7c2.435,1.622,4.443,3.66,8.966,3.239-.553-2.078-3.574-4.113-6.291-4.113A4.2,4.2,0,0,0,12190.688,12637.549Zm-258.213-.926c-.078-.541.1-.825.475-.927,14.194,2.126,29.755,2.915,42.009,6.941C11961.819,12641.477,11944.7,12640.222,11932.476,12636.623Zm515.007,1.849c-.332-2.128,2.828-.835,3.269-2.2.192.279.884.139,1.686,0,1.214-.21,2.681-.418,3.07.814-.5,1.372-3.006,2.228-5.164,2.228A4.175,4.175,0,0,1,12447.482,12638.472Zm-243.105-5.086c-6.862-1.323-17.217-4.262-17-7.87.247-3.931,6.855-3.437,10.861-4.632-1.75-1.215-5.622-.349-5.664-3.239-1.2,2.018-7.479,2.164-7.557-.926a13.983,13.983,0,0,0,5.193.465c1.775-3.2,3.4-6.536,8.969-6.02,1.493-1.931.778-6.024.944-9.254,1.042-2.292,5.174-3.921,6.608-6.944.377-.793-.11-2.339.475-4.163.441-1.388,2.382-2.116,2.359-2.779-.1-2.647-5.554-4.012-2.971-7.24-1.987,2.3-7.208,5.109-10.721,7.24.974,5.221-.785,13.116,2.834,15.738-.247.825-.76.539-1.312.255a1.462,1.462,0,0,0-1.049-.255,13.1,13.1,0,0,1-.474,5.09c-3.516,2.415-9.641,2.271-10.384,7.405-3.6-6.05,4.154-7.6,7.554-9.72-.672-9.369-2.165-17.937-8.973-21.291-2.69,2.915-.581,10.537-3.3,13.425-.61-4.208.714-10.373,1.889-14.348-.99-2.734-3.083-4.383-3.3-7.868-1.6,5.525-2.337,11.9-6.139,15.271h-5.193c-1.643,5.478,1.169,12.518-.471,18.052-3.142,1.55-3.031,6.286-5.667,8.332,2.217.6,5.181.475,8.027.462.022-2.181-1.525-2.827-1.419-5.093.935,2.479,3.811,3.056,4.249,6.019-3.661,1.68-10.228.831-14.159,0,.413-3.763,4.067-4.342,4.249-8.333.948-2.151,3.85-2.392,2.831-6.479-1.062,0-2.266,0-3.57,0-5.545.02-12.861.038-18.146-.465-10.419-.993-26.338-1.581-26.905-7.405-.552-5.632,14.077-7.1,21.241-7.406-9.891-22.466-5.519-68.913,25.965-62.019,9.923,2.173,18.949,10.571,23.127,18.978.276,1.658-1.4,1.4-2.83,1.384a198.065,198.065,0,0,0,19.826.93c3.629,1.068-.3,9.554,4.72,9.255,1.408-.007-.666-3.431,1.415-2.774-.886,4.11,2.993,3.541,3.778,6.018v11.568c7.621-1.639,22.1-6.161,28.795.927-5.129,10.241,3.151,33.636-11.8,34.248v12.5c.224.764.571.475,1.045.185a1.263,1.263,0,0,1,1.314-.185c-.564,4.294-9.835,5.1-11.8,1.389-10.927,1.011-23.946-.029-32.1,3.7,13.007,6.792,34.816,7.44,54.759,8.328,12,.536,24.8,1.375,33.041-3.239-10.845-5.717-28.763-4.5-42.009-7.867.441-4.781,7.689-2.209,11.325-1.854,4.992.49,9.99,1.366,12.746,1.854,4.759.839,20.931,3.287,20.771,8.331-.14,4.434-13.932,5.252-19.826,5.555-6.164.316-11.811.485-17.16.485A196.649,196.649,0,0,1,12204.377,12633.386Zm-.474-12.963a71.674,71.674,0,0,1,11.562-.258c4.756.146,9.508.293,13.932-.668v-11.571a17.762,17.762,0,0,1-3.252-.271,15.248,15.248,0,0,0-4.3-.19c-5.473-4.049-2.62-16.254-10.384-18.052-2.078,5.525-4.207,11-8.973,13.886-.263,3.291.562,7.647-.471,10.181-.96.07-1.921.051-2.84.035-2.062-.042-3.928-.083-5.184.892-.757.585.149,3.014-1.415,1.852,1.4,2.483,5.443,2.378,9.438,2.314,1.669-2.219,1.814-5.936,3.3-8.329C12206.295,12614.5,12203.183,12619.465,12203.9,12620.423Zm23.663-15.066c3.437.313,6.716.627,8.91-1.133,2.606-7.934,3.515-20,4.248-28.232-5.972,3.249-16.09,3.838-25.02,2.774,3.168,7.852,4.34,17.654,6.609,26.384.405-.027.815-.038,1.229-.038C12224.872,12605.111,12226.231,12605.232,12227.566,12605.356Zm-108.159-8.538c11.176,6.311,30.194,4.971,46.262,4.165a55.692,55.692,0,0,0,.471-9.72c-5.735-.174-12.144-.5-18.435-.5C12136.348,12590.763,12125.369,12591.833,12119.407,12596.818Zm69.863-37.953c-.8,9.424-6.09,24.541,2.833,29.158-1.263.959.091,6.459,1.416,7.868.058-3.142-.818-5.368-.471-8.794,3.788-4.637,11.711-5.812,13.214-12.96.983-4.662-1.266-9.438-1.886-14.808-4.146-.109-7.974-.533-12.231-.533C12191.21,12558.8,12190.255,12558.816,12189.271,12558.865Zm-33.985,22.215c2.5,5.885,7.994,8.822,16.048,9.258,5.521-3.844,5.557-13.065,7.554-20.362.191,1.375-.458,5.971.474,5.086.055-2.256-.257-4.876.471-6.477a20.892,20.892,0,0,0-7.219.313c-3,.492-5.759.989-7.888-.312-1.137-2.559,3.762-3.427,1.415-4.166h-3.3c-4.943,6.257,2.532,15.868,1.887,22.218-3.944-4.927-6.044-14.127-5.194-22.218.779.007.267,1.285.945,1.391.753-3.227,5.021-3,9.293-2.784,2.707.141,5.414.279,7.229-.458-1.1-2.161-1.155-7.808-.944-9.717,2.035,2.019,1.1,6.944,1.889,10.181h3.778c1.328-4.713.936-11.117,2.356-15.737-6.7-6.664-11.809-15.561-23.13-16.661-25.325-2.461-27.676,35.957-21.713,58.318,3.175-.051,6.83-.023,10.349.01,3.928.031,7.687.066,10.423-.01-3.246-1.115-2.9-4.739-7.083-2.779-9.537-7.858-8.812-36.811,0-46.284,7.687-8.263,17.271,1.543,16.521,10.181-1.762-4.561-2.872-10.43-7.553-11.106-13.257-1.919-13.179,31.1-8.5,38.881a70.032,70.032,0,0,1,3.3-23.14,2.5,2.5,0,0,0,1.1-.278,2.378,2.378,0,0,1,1.733-.19c-.042.733-1.2.366-.941,1.392a24.02,24.02,0,0,0,14.633-.461c-1.516,5.847-11.526,3.395-15.577,1.387C12155.369,12563.267,12154.977,12571.831,12155.285,12581.08Zm57.586,6.018a31.352,31.352,0,0,0,3.778,2.314c-.935-2.937-.792-6.937-2.83-8.793C12213.81,12583.082,12214.114,12585.848,12212.871,12587.1Zm-1.886-1.388c2.029-6.34.438-16.234.944-24.066-.675-.115-.795-.764-1.418-.926C12210.414,12567.958,12204.838,12581.176,12210.985,12585.71Zm-25.017-2.313c-.707-2.25-.032-8.29-.947-8.8C12185.2,12577.907,12182.492,12582.162,12185.969,12583.4Zm-2.359-3.7c.356-3.812,1.567-6.791,1.412-11.107h-3.3C12181.282,12572.1,12180.087,12578.7,12183.609,12579.692Zm31.625-3.7c8.42,1.526,19.21.5,25.49-2.775a23.608,23.608,0,0,0-8.4-1.455A41.763,41.763,0,0,0,12215.234,12575.991Zm-49.095-8.333c3.963-.436,7.6-1.192,12.272-.925-.8-1.377-4.054-2.343-7.01-2.343C12168.521,12564.391,12165.92,12565.308,12166.14,12567.658Zm16.521-2.313c-.5,1.512.607,1.458,1.708,1.407.221-.012.441-.021.652-.019.177-1.176-.6-1.419-1.624-1.419C12183.162,12565.314,12182.914,12565.328,12182.661,12565.345Zm-3.774,0c.548.08.513.732.474,1.389,1.243.143,1.214-.965,1.412-1.849a5.793,5.793,0,0,1-.617.012l-.2,0C12179.444,12564.895,12178.979,12564.938,12178.887,12565.345Zm4.723-1.85a27.244,27.244,0,0,1,3.3,1.39c1.779-3.811.445-10.676,2.834-13.886.64,1.329-.406,4.368,0,6.94a68.87,68.87,0,0,1,10.828-.472c1.113.007,2.23.017,3.331.01.879-1.562.574-5.324,0-6.94-6.132-.931-13.825-.332-19.353-1.853C12184.924,12554.295,12184.044,12558.675,12183.609,12563.5Zm23.6-3.7c-.156,1.852.84,2.568.471,4.627,1.973-.073.879-3.148,1.889-4.166a1.266,1.266,0,0,1-1.049-.264,1.269,1.269,0,0,0-.775-.285A1.923,1.923,0,0,0,12207.211,12559.792Zm243.576,75.9a1.328,1.328,0,0,1-.036.572C12450.673,12636.156,12450.676,12635.975,12450.787,12635.7Zm-169.468-6.019c-.071-.534.106-.824.474-.925,5.353,2.157,15.317-.2,16.521,6.017h-.193C12292.5,12634.771,12285.821,12632.192,12281.319,12629.678Zm7.557-1.387a28.474,28.474,0,0,1,15.577,2.777,3.661,3.661,0,0,1-2.677.887C12298,12631.956,12292.172,12629.019,12288.876,12628.291Zm56.174,0c2.022-.344,6.142-1.061,8.021,0-.24,1.092-1.869,1.557-3.6,1.557C12347.5,12629.848,12345.4,12629.248,12345.05,12628.291Zm-415.408-24.532c-1.444-18.405,1.932-38.779,14.163-43.967h.944c12.007,6.843,21.238,22.679,22.66,40.73.844,10.75-.51,22.049-6.139,28.693,9.514-25.3-.409-57.165-18.882-66.648-11.451,10.4-13.736,42.045-4.72,58.316,1.951,3.521,5.506,4.791,6.136,8.794h-.065C11934.7,12629.679,11930.48,12614.412,11929.642,12603.759Zm72.223,23.144c-4.758-.871-9.734-1.441-13.687-2.313a17.956,17.956,0,0,0,2.833-10.184c.176-24.322-21.793-54.3-45.79-56a16.729,16.729,0,0,0-6.557,1.038c-2.3.738-4.34,1.477-6.661.814,2.3-5.318,12.968-5.681,18.882-4.166,22.063,5.662,47.268,37.609,39.182,66.65,3.8.563,8.712,1.015,13.218,1.388,4.266.354,9.455-.376,11.332,2.777a4.646,4.646,0,0,1-4.023,1.795C12007.854,12628.7,12004.558,12627.4,12001.864,12626.9Zm369.618-3.7c3.661-.932,8.394-2.762,10.86-2.775.792,0,2.289-.595,2.36,1.389-6.038,3.045-16.11,4.547-23.131,5.087C12363.633,12625.19,12367.668,12624.173,12371.482,12623.2Zm-52.4,0c-4.113-.55-9.167-.258-11.328-2.314,7.455.4,15.369.36,21.715,1.854-.451,1.36-1.589,1.8-3.026,1.8C12324.232,12624.535,12321.308,12623.5,12319.086,12623.2Zm-277.568-1.849c-4.139-.408-8.333-1.185-12.27-1.853-5.889-1-20.265-2.4-19.356-8.794.8-5.6,18.223-5.554,25.491-5.554,3.252,0,7.78-1.05,8.968,1.388-11.117.824-23.637.274-31.154,4.627,6.33,5.154,20.083,6.789,31.154,7.407a20.6,20.6,0,0,0,2.616-.134c2.883-.255,6.313-.506,6.823,2.446a6.664,6.664,0,0,1-4.515,1.342C12046.814,12622.226,12044.012,12621.594,12041.518,12621.35Zm368.676-3.705c2.847-2.074,7.063-3.059,10.857-4.166,4.411-1.285,9.43-2.078,12.744-4.163.986-.2,1.249.319,1.889.462-2.1,3.411-7.547,4.255-11.8,5.553-3.493,1.064-7.493,2.529-11.3,2.529A12.787,12.787,0,0,1,12410.193,12617.645Zm-45.316-.461c2.073-4.294,9.828-3.015,10.854-8.332-1-2.253-5.646-.942-7.08-2.776,1.6-3.039,7.628-.668,9.439.462,2.15,7.64-6.287,10.663-12.414,10.663C12365.405,12617.2,12365.138,12617.194,12364.877,12617.184Zm-222.339-6.02c-7.265-1.419-16.992-1.329-24.075-3.238-.549.075-.838-.1-.944-.462,4.45-1.7,13.889-.38,17.47,1.852,4.95.541,11.536-.515,14.633,1.849a2.36,2.36,0,0,1-2.184,1.666C12145.914,12612.83,12144.108,12611.472,12142.538,12611.164Zm269.07-8.327h.944c4.182.358,9.1.985,13.688,1.387.854.073,1.795.067,2.746.058,2.889-.021,5.855-.045,6.7,2.256-.882.057-1.784.084-2.7.084A68.646,68.646,0,0,1,12411.608,12602.837Zm-236.5-.927c3.736-.516,12.568-2,16.051-.927-.588,2.23-3.634,3.04-6.96,3.04C12180.551,12604.023,12176.562,12603.049,12175.111,12601.91Zm259.154,0c-7.187-.656-16.812-2.062-24.072-2.774-.013-.449-.578-.355-.944-.461.211-.414.412-.828.944-.927,5.956-.408,12.146.634,17.938.927,1.165.058,2.369.034,3.563.012,3.522-.06,6.973-.124,9.18,1.84-.17,1.462-1.352,1.848-2.732,1.848A37.082,37.082,0,0,1,12434.266,12601.906Zm-371.978-68.034c10.517-.523,20.147,6.258,25.02,12.96,2.218,3.052,5.693,7.941,3.3,11.568-5.888-1.536-6.382-8.022-9.439-11.568-3.544-4.108-9.565-8.733-17.466-8.794-25.208-.191-37.641,37.411-29.27,62.02C12021.37,12574.594,12034.4,12535.267,12062.288,12533.872Zm411.159,56v-2.779c.552.076.4.844.474,1.392a8.854,8.854,0,0,0,4.727-.315c1.522-.417,2.876-.837,4.242-.15-.38-.158-1.467.421-2.964,1a13.293,13.293,0,0,1-4.745,1.029A8.337,8.337,0,0,1,12473.447,12589.877Zm30.214-3.24c3.811-.19,6.9.328,8.968,1.853C12511.078,12588.3,12504.625,12588.938,12503.661,12586.637Zm-81.669-10.182h.944c2.275,1.324,1.951,9.59.475,11.568C12419.922,12586.362,12421.57,12580.211,12421.992,12576.455Zm82.609,7.4c7.826,1.079,16.974.589,22.189-2.314,1.095.159,2.211.3,1.887,1.849-2.672,1.786-8.283,2.958-13.6,2.958C12510.862,12586.351,12506.831,12585.612,12504.6,12583.858Zm-30.681-.466c2.707-1.412,5.707.459,8.021.931-.475.608-1.257.363-2.188.118a4.385,4.385,0,0,0-2.531-.118c1.58,1.216,5.154.563,5.667.458-.628.7-2.544,1.153-4.446,1.154C12476.052,12585.936,12473.683,12585.221,12473.921,12583.393Zm134.062-10.645c-4.288,3.51-11.455,4.2-17.937,5.557C12594.414,12574.878,12601.581,12574.189,12607.982,12572.748Zm-97.713,1.39a26.339,26.339,0,0,0-3.025.108c-2.694.2-5.424.4-6.891-1.5,6.18-.917,14.214-.624,21.244-.462a29.231,29.231,0,0,0,3.022-.171c3.457-.307,7.248-.612,7.836,2.946a21.458,21.458,0,0,1-4.694.435C12522.555,12575.5,12516.054,12574.4,12510.27,12574.138Zm-277.568-12.494c-5.443-2.263-13.978-5.255-20.3-3.7,2.938-5.595,18.084-.649,23.135,1.853.548,2.787,1.181,8.176-.948,9.719C12231.581,12569.218,12233.058,12564.531,12232.7,12561.644Zm353.566,1.388a60.174,60.174,0,0,1,7.913-.012c4.882.2,9.849.394,13.8-1.379-1.756,2.146-4.882,2.794-8.395,2.794C12595.095,12564.435,12589.969,12563.374,12586.268,12563.031Zm-66.085-10.648c7.677-1.384,15.591-3.552,22.187-2.776-2.253,3.021-6.781,2.251-10.388,2.776-10.63,1.563-22.634,4.073-33.988,5.095C12504.193,12554.726,12512.467,12553.775,12520.183,12552.383Zm-187.408,1.39a4.382,4.382,0,0,1,5.667-3.7c.013,2.021.282,4.291-.948,5.1a7.976,7.976,0,0,1-1.192.1A4.617,4.617,0,0,1,12332.774,12553.772Zm-84.022-30.545c12.45-2.43,18.459,6.142,23.587,13.649-5.765-7.77-17.208-16.642-28.31-9.022-5.388,3.7-9.53,10.855-11.328,18.052-.529,2.116.383,5.5-2.36,6.941C12230.565,12539.951,12237.125,12525.489,12248.752,12523.228Zm308.25,14.347c.655,1.981.85,8.421,1.415,12.035C12555.762,12547.735,12557.511,12541.551,12557,12537.574Zm-287.012,9.258c.634.458.929,1.251,1.89,1.391,2.72-1.015,2.775-.589,1.941-.162a4.406,4.406,0,0,1-1.863.463A1.815,1.815,0,0,1,12269.99,12546.832Zm164.749.923a15.765,15.765,0,0,0,3.824-.471,15.006,15.006,0,0,1,4.2-.452,39.476,39.476,0,0,1-7.753,1.514C12434.338,12548.346,12434.118,12548.185,12434.739,12547.755Zm77.416-7.4c5.642-.64,10.634-1.916,16.522-2.313-3.221,1.165-11.138,1.729-16.049,2.775a1.55,1.55,0,0,1-.238.021C12511.764,12540.834,12511.71,12540.375,12512.155,12540.352Zm-239.816-3.475c.525.708,1,1.407,1.43,2.085C12273.3,12538.282,12272.821,12537.584,12272.339,12536.877Zm358.3-6.706c-1.049,1.989-.324,5.729.944,6.938a.488.488,0,0,1-.3.1C12629.835,12537.213,12627.621,12530.741,12630.643,12530.171Zm-316.054,4.362c.555-.553.978-.237,1.072.077.059.191,0,.382-.22.382A1.555,1.555,0,0,1,12314.589,12534.533Zm336.824-1.586c-.609-2.14,1.848-1.274,2.36-2.317.844-.128.964.439.471.464.074.545.86.392,1.415.461a7.272,7.272,0,0,1-3.9,1.4C12651.646,12532.956,12651.531,12532.952,12651.413,12532.947Zm-116.521-2.047c.2.6.436,1.234.653,1.867A5.293,5.293,0,0,1,12534.893,12530.9Zm126.9.654a1.932,1.932,0,0,1-.591.271A5.727,5.727,0,0,1,12661.794,12531.555Zm8.972-1.846c.38-.4,1.292-.276,1.415-.929.338.465-.525,1.868-.47,2.774C12670.88,12531.443,12670.633,12530.764,12670.766,12529.709Zm-207.231,0c-.782-2.781.974-6.332.471-.467,1.775-.809,1.3-.4.6.013a3.71,3.71,0,0,1-1.028.477C12463.555,12529.731,12463.538,12529.726,12463.534,12529.709Zm-32.528-15.869c7.617,2.391,14.081,7.994,15.065,15.869C12443.215,12523.4,12438.412,12516.679,12431.006,12513.84Zm-27.421,14.015c1.266-8.622,7.072-13.3,14.013-14.779-7.051,1.815-11.8,7.294-13.542,14.779.026.521-.09.732-.216.732C12403.69,12528.587,12403.528,12528.284,12403.585,12527.854Zm244.991-3.24c-.168-1.4,1.539-.962,2.363-1.387a3.36,3.36,0,0,1-1.415.925,2.08,2.08,0,0,0,1.889.924.715.715,0,0,1-.746.464A3.752,3.752,0,0,1,12648.576,12524.614Zm-185.519-1.393.006.006c.9.868.833,1.206.557,1.206A.767.767,0,0,1,12463.058,12523.222Zm-45.46-10.146a22.737,22.737,0,0,1,8.173-.494,20.978,20.978,0,0,1,5.235,1.259A26.826,26.826,0,0,0,12417.6,12513.075Zm244.012-.491a3.325,3.325,0,0,0-1.228,0c-.05-2.934.868-4.87,3.1-4.212-.175.059-.13.48,0,.9.208.678.626,1.355.682.531,1.438,1.295-1.383,1.744-1.89.465-.691.4-1.5.69-1.415,1.852,1.007.213.9-.661.941-1.391.893.054.331,1.531,1.419,1.391-.025.418-.368.524-.82.524A7.391,7.391,0,0,1,12661.609,12512.584Zm-176.83-.93c-.222.188-.449.391-.684.6A3.14,3.14,0,0,1,12484.779,12511.654Zm179.395-2.86a1.018,1.018,0,0,0-.133-.216,6.4,6.4,0,0,1,.59.3c-.1.213-.168.293-.223.293C12664.323,12509.173,12664.268,12508.982,12664.174,12508.794Zm-.7-.425a.266.266,0,0,1,.205.045.419.419,0,0,1,.357.164A4.571,4.571,0,0,0,12663.479,12508.369Zm-39.919-7.359c1.279,1.3,1.176.368,2.834,0,.292,2.138-1.8,1.94-2.834,2.777A2.234,2.234,0,0,1,12623.56,12501.01Zm23.131-11.108c.944-.894,1.539-.457,2.233-.025a2.406,2.406,0,0,0,1.545.49c.62-.465.3-.061-.285.344-.763.529-1.964,1.056-2.074-.344-.662.162-.042.812.467.924a.568.568,0,0,1-.532.418A1.762,1.762,0,0,1,12646.69,12489.9Z" transform="translate(-11008.939 -11790.518)" fill="#fff" stroke="rgba(0,0,0,0)" stroke-width="1"/><path d="M84.783,0A133.927,133.927,0,0,0,54.951,11.379,89.482,89.482,0,0,0,29.688,31.085,76.279,76.279,0,0,0,14.121,59.137Q12.941,63,12.13,66.946a60.275,60.275,0,0,0-1.117,8.042,75.629,75.629,0,0,0,.578,16.131,62.409,62.409,0,0,0,4.252,15.639A37.7,37.7,0,0,0,25.2,120.271a27.185,27.185,0,0,0,7.073,4.547,23.238,23.238,0,0,0,8.255,1.96,30.593,30.593,0,0,0,16.081-3.933,36.815,36.815,0,0,0,12.338-10.889A27.368,27.368,0,0,0,74.314,96.23a22.467,22.467,0,0,0-1.627-8.358,19.321,19.321,0,0,0-4.8-7.155,16.721,16.721,0,0,0-7.766-3.957,25.211,25.211,0,0,0-8.447-.288A51.661,51.661,0,0,0,36.125,81.34a72.163,72.163,0,0,0-13.746,8.5,63.076,63.076,0,0,0-11.314,11.594A54.247,54.247,0,0,0,3.41,115.777c-3.655,10.3-4.04,21.4-2.705,31.993a152.5,152.5,0,0,0,7.744,30.939q1.309,3.755,2.721,7.462l.671,1.753.329.85.663,1.7,1.348,3.386q-4.964-.1-9.942-.277c6.613,6.9,13.34,13.328,19.975,19.906.085-9.35,0-18.743.326-27.88q-3.561,3.427-7.074,6.929l-1.338-3.361-.657-1.683-.326-.843-.664-1.736q-1.395-3.67-2.689-7.372a149.022,149.022,0,0,1-7.573-30.211c-1.29-10.228-.89-20.752,2.53-30.375a50.634,50.634,0,0,1,7.158-13.41A59.5,59.5,0,0,1,24.589,92.6a68.656,68.656,0,0,1,13.058-8.068A48.168,48.168,0,0,1,52.1,79.987a21.724,21.724,0,0,1,7.257.229A13.166,13.166,0,0,1,65.5,83.33a15.814,15.814,0,0,1,3.9,5.861,18.93,18.93,0,0,1,1.373,7.046,23.829,23.829,0,0,1-4.713,13.67,33.281,33.281,0,0,1-11.141,9.827,27.1,27.1,0,0,1-14.2,3.508,21.535,21.535,0,0,1-13.174-5.624A34.187,34.187,0,0,1,19.1,105.363a58.912,58.912,0,0,1-4-14.748,71.942,71.942,0,0,1-.551-15.367A56.691,56.691,0,0,1,15.6,67.662q.782-3.787,1.909-7.485a72.73,72.73,0,0,1,14.847-26.76A85.956,85.956,0,0,1,56.627,14.5a130.455,130.455,0,0,1,29.04-11.07Z" transform="translate(793.507 968.146) rotate(7)" fill="#fff"/></g></svg>