<svg xmlns="http://www.w3.org/2000/svg" width="168.045" height="164.401" viewBox="0 0 168.045 164.401">
  <g id="Party_Icon" data-name="Party Icon" transform="translate(168.045 43.532) rotate(109)">
    <path id="Path_300" data-name="Path 300" d="M9410.779,6540.216c-1.134.665-1.622,1.965-3.908,1.468-1.335-1.569.717-2.9.487-4.886-2.213-1.209-5.11-1.735-4.89-5.373,1.422-1.051,2.5-.421,3.636.206a4.628,4.628,0,0,0,2.227.769c-.336-3.43-.08-6.27,3.913-5.373,1.105.85.454,3.454,1.953,3.906,1.438-.661,3.024-.611,3.912.492.434,3.037-2.559,2.653-2.939,4.881.722,1.569,1.678,2.885,1.47,5.378a2.867,2.867,0,0,1-1.676.6C9413.348,6542.285,9412.126,6540.61,9410.779,6540.216Zm-53.893-10.966c4.4-.159,6.841-4.725,8.445-6.623.708,4.27-.01,7.74,2.447,10.749-5.022-.871-5.295,3-8.306,4.891C9358.981,6534.853,9360.31,6532.995,9356.887,6529.25Zm4.545,1.683a1.332,1.332,0,0,0,1.358-.213,1.265,1.265,0,0,1,1.079-.277c.064-.874-.594-1.027-.485-1.953C9362.544,6529.122,9361.462,6529.5,9361.432,6530.933Zm31.268-61.074c-.883,9.833-5.692,19.429-8.306,30.293-2.537,10.545-2.883,22.653-7.328,32.249C9377.094,6506.37,9383.852,6487.067,9392.7,6469.859Zm-1.465,58.631c-1.714-1.439-1.39-6.533,1.465-6.349,3.419.13,3.311,6.521-.362,6.52A3.889,3.889,0,0,1,9391.234,6528.49Zm6.346-38.6c-.431-7.009-.733-15.854,1.955-19.057.649,1.47.5,3.74.49,5.868,6.929,3.179,13.956,8.824,22.478,8.791-2.223-7.165-8.342-13.355-14.172-18.08a104.665,104.665,0,0,0-19.542-12.7c-6.031-2.874-12.711-5.529-19.544-6.355,1.555,6.1,6.038,9.276,9.771,13.194,1.288-.242,1.647-2.691,2.931-1.465-2.969,5.484,3.307,5.584,2.447,9.773-3.531,1.82-5.23-1.323-7.818-1.958-10.038,6.535-35.673,12.64-46.417,2.445,14.7,4.069,33.543.3,43.975-5.863-2.942-5.785-10.709-9.03-8.306-18.564a11.124,11.124,0,0,1,5.375-1.953c12.616-9.342,26.639-16.536,40.147-24.335,4.68-2.7,11.014-6.834,16.583-7.679-3.99,5.839-9.227,8.344-12.272,12.95,4.848,1.021,5.854,6.036,5.822,11.928-6.143-4.606-14.124-9.212-20.882-5.525,9.265,2.625,17.479,10.242,19.46,18.522-7.457-7.922-27.139-17.911-32.971-11.458,13.35,1.465,20.089,9.52,25.645,18.785-11.733-4.907-22.5-22.129-37.009-13.565,21.563,7.75,34.705,11.525,46.985,28.561.1-25.637.615-51.9,8.91-63.574-1.541,18.754-1.175,48.462-2.766,69.1-.308,3.972-1.4,11.016-3.91,12.7-7.782,5.231-20.858-6.138-24.428-8.8-.04,14.209,3.047,25.29,5.373,37.134C9400.8,6513.594,9398.276,6501.023,9397.58,6489.891Zm-34.2,6.841c-1.907.7-1.872,3.342-4.888,2.933-1.7-2.871,2.438-3.619,2.445-6.353-1.754-1.181-4.05-1.818-4.4-4.4.684-.128.557-1.072.976-1.465a3.562,3.562,0,0,1,3.131.954,3.573,3.573,0,0,0,2.736,1c.026-2.578-.61-5.823,2.443-5.378,2,.282,1.022,3.539,2.442,4.4,1.418-.629,3.3-.471,3.418,1.465.229,2.348-3.16,1.072-2.931,3.42.223,3.136,2.389,6.033,1.468,8.8a5.439,5.439,0,0,1-.727.052C9365.649,6502.161,9366.712,6497.246,9363.384,6496.732Zm-57-16.02a48.972,48.972,0,0,0,6.519,1.624c4.888.656,5.378-.329,9.61-.975.1.547-5.03,7.425-5.068,13.906a29.611,29.611,0,0,1-4.552-.443c-3.42-.5-6.978-1-9.11,1.032C9305.105,6491.721,9307.368,6486.9,9306.389,6480.712Zm6.028,10.074a12.576,12.576,0,0,0,2.595.083c-.391-1.692.724-1.877.489-3.42a6.237,6.237,0,0,1-2.572-.263,6.034,6.034,0,0,0-2.8-.227c.106,1.574-.869,2.071-.487,3.91a5.388,5.388,0,0,1,1.429-.2A11.122,11.122,0,0,1,9312.417,6490.786Zm32.888-31.678c-4.133-1.569-2.578-7.854,1.463-7.328,3.439.446,3.826,7.63.011,7.63A4.168,4.168,0,0,1,9345.3,6459.108Z" transform="translate(-9303.786 -6408.574)" fill="#fff"/>
  </g>
</svg>
