<svg xmlns="http://www.w3.org/2000/svg" xmlns:xlink="http://www.w3.org/1999/xlink" width="583.5" height="86.805" viewBox="0 0 583.5 86.805"><defs><clipPath id="a"><path d="M0-37.761H86.808V49.044H0Z" transform="translate(0 37.761)" fill="none"/></clipPath><clipPath id="b"><path d="M0-6.943H465.148v41.02H0Z" transform="translate(0 6.943)" fill="none"/></clipPath></defs><g transform="translate(-487 -90.761)"><g transform="translate(487 90.761)"><g transform="translate(0 0)" clip-path="url(#a)"><g transform="translate(9.036 22.925)"><path d="M19.379,8.3v.478c1.94,0,4.17-2.064.616-5.942-4.582-5-6.113-7.372-10.825-8.779-4.083-1.106-7.6-.241-10,3.49,0,0-5.919,8.515,5.317,17.949C9.5,19.7,12.435,21.16,14.531,22.9c4.306,3.572,4,5.444,4,5.444s-6.09-3.124-10.708-2.014c-2.977.715-2.439,1.285-7.342,3.69a14.132,14.132,0,0,1-5.715,1.343c-.048-.018-.087-.037-.129-.055a15.489,15.489,0,0,1-7.037-6.627A26.342,26.342,0,0,0-11.259,28.6a34.734,34.734,0,0,1-3.593-2.2l-.069-.046c1.308,1.349,2.719,3.478,4.71,4.51.133.067.4.193.4.193a19.878,19.878,0,0,0,7.846,1.48,10.637,10.637,0,0,0,2.411-.113C4.046,31.865,4.8,30.649,9,28.573c.9-.446,7.283-2.738,11.747,4.168,0,0,.251-4.317-4.168-9.03C14.338,21.323-1.611,8.935,1.973.192,3.214-2.838,7-5.152,10.623-3.474c2.646,1.225,6.313,4.225,9.443,7.317C23.416,7.16,19.913,8.3,19.379,8.3" transform="translate(14.921 6.391)" fill="#5d4788"/></g><g transform="translate(40.886 22.924)"><path d="M20.8,18.53a34.952,34.952,0,0,1-3.593,2.2A26.074,26.074,0,0,0,18.345,16.8a15.493,15.493,0,0,1-7.037,6.625c-.039.018-.08.037-.131.055a14.077,14.077,0,0,1-5.715-1.343c-4.9-2.4-4.363-2.975-7.34-3.687-4.621-1.11-10.708,2.011-10.708,2.011s-.3-1.869,4-5.441c2.1-1.742,5.027-3.2,10.039-7.407C12.7-1.816,6.773-10.331,6.773-10.331c-2.4-3.731-5.926-4.593-10.007-3.49-4.715,1.409-6.3,3.775-10.883,8.781C-17.668-1.161-15.5.9-13.565.9V.425c-.536,0-3.97-1.143-.621-4.46,3.126-3.09,6.844-6.092,9.487-7.317,3.632-1.678,7.427.639,8.667,3.669C7.555,1.059-8.4,13.445-10.634,15.834c-4.418,4.71-4.165,9.027-4.165,9.027,4.467-6.9,10.846-4.616,11.749-4.168,4.2,2.076,4.952,3.287,8.554,3.853a10.58,10.58,0,0,0,2.411.1,19.888,19.888,0,0,0,7.848-1.462s.264-.126.393-.2c2-1.03,3.4-3.14,4.715-4.494a.144.144,0,0,0-.071.032" transform="translate(16.015 14.267)" fill="#371863"/></g><g transform="translate(0 -0.001)"><path d="M48.284,24.523A41.735,41.735,0,0,1,44.976,40.89a41.883,41.883,0,0,1-9.011,13.368A41.909,41.909,0,0,1,6.228,66.575,41.9,41.9,0,0,1-23.507,54.258,41.883,41.883,0,0,1-32.519,40.89a42.179,42.179,0,0,1,0-32.737,41.918,41.918,0,0,1,9.011-13.37A41.935,41.935,0,0,1,6.228-17.532,42.086,42.086,0,0,1,44.976,8.153a41.747,41.747,0,0,1,3.308,16.37M46.225,7.629a43.556,43.556,0,0,0-23.1-23.1,43.164,43.164,0,0,0-16.9-3.411,43.438,43.438,0,0,0-39.99,26.51,43.509,43.509,0,0,0,0,33.788,43.277,43.277,0,0,0,9.3,13.8A43.265,43.265,0,0,0,6.228,67.924a43.162,43.162,0,0,0,16.9-3.409,43.556,43.556,0,0,0,23.1-23.1,43.59,43.59,0,0,0,0-33.788" transform="translate(37.176 18.881)" fill="#5d4788"/></g></g></g><g transform="translate(605.352 113.735)"><g transform="translate(0 0)" clip-path="url(#b)"><g transform="translate(327.993 17.232)"><path d="M6.03,5.811C7.519,4.24,7.047,4.8,7.372,4.163a3.635,3.635,0,0,0,.78-1.648.364.364,0,0,0-.319-.4A3.8,3.8,0,0,0,5.085,3.7c-.083.148-.23.626-.473.78A20.727,20.727,0,0,0,3.6,7.3,12.382,12.382,0,0,0,6.03,5.811m-7.06,7.379c0-.715-.313-1.182-.154-1.814A1.726,1.726,0,0,1-.8,9.888,11.544,11.544,0,0,1,2.19,2.834,12.278,12.278,0,0,1,6.03-.546a3,3,0,0,1,1.879-.626A2.426,2.426,0,0,1,10.2,0s.313.16.313.319c-.083.236.555,2.351.555,2.665a.693.693,0,0,1-.177.549,14.092,14.092,0,0,1-1.637,2.9V6.52c-.242.7-1.258,1.406-1.648,1.725-.4.154-1.962,1.8-2.044,1.725-.7.313-1.879.863-1.8,1.489,0,1.648,0,.236.7,1.335a12.064,12.064,0,0,0,1.182,1.879,4.946,4.946,0,0,0,2.984.945,5.517,5.517,0,0,0,3.994-1.176,8.91,8.91,0,0,1,1.489-.786c.083,0,.868-.626,1.1-.786A12.9,12.9,0,0,0,16.937,11.7a2.113,2.113,0,0,1,1.648-.4c.242-.071.39.16.39.4s-.077.549-.077.863c-.071,0-.071.39-.154.473a13.383,13.383,0,0,1-2.281,1.642c-.709.632-1.412.715-2.115,1.495l-.313.39a2.11,2.11,0,0,0-1.566,1.253,20.854,20.854,0,0,1-2.2,1.418c-.154,0-.868-.083-.945-.083a6.777,6.777,0,0,0-1.17.4l-.242.23L6.5,19.619a3.243,3.243,0,0,0-.863,0,5.607,5.607,0,0,0-1.572-.626c-.39-.077-.313-.313-.868-.786a9.443,9.443,0,0,1-1.962-1.412,7.331,7.331,0,0,1-1.8-2.2,5.194,5.194,0,0,0-.473-1.406" transform="translate(1.229 1.184)" fill="#5d4788"/></g><g transform="translate(345.84 10.649)"><path d="M.465,14.086c0-.473-.313-1.258-.39-2.044v-.626c0-.083-.165-.473-.165-.555C-.167,9.295.7,7.18,2.574,7.1,4,7.02,4.306,8.745,4.306,9.927v.78C4.229,10,5.4,16.125,5.487,17.614v.473c0,.307.39,2.2.78,2.115.709-.154.857-1.648,1.247-2.038.325-.077,1.9-4.159,2.517-5.731,1.572-2.351,1.8-3.923,5.412-9.648.638-1.1,1.648-5.571,3.775-5.654A2.475,2.475,0,0,1,21.1-.353C21.1.976,19.135,2,19.448,2.465l-.544.549c-.083,1.1-.8,1.967-.874,2.907l-1.016,1.1C16.47,8.042,16,8.2,15.052,10a11.293,11.293,0,0,1-1.341,3.22c-.313.313-.774.626-.774,1.176.083,1.1-1.335,2.121-1.335,4.159-.544.16-2.044,4.006-2.434,5.181-.384.467-.7,1.8-1.258,2.428A1.944,1.944,0,0,1,5.96,27.5c-1.572.083-3.45-2.351-3.846-4.4-.473-.467-.319-3.527-.874-4.236-.4-1.572-.313-3.137-.774-4.78" transform="translate(0.095 2.87)" fill="#5d4788"/></g><g transform="translate(365.41 17.232)"><path d="M6.035,5.811C7.523,4.24,7.063,4.8,7.376,4.163a3.635,3.635,0,0,0,.78-1.648.365.365,0,0,0-.307-.4A3.773,3.773,0,0,0,5.1,3.7c-.083.148-.242.626-.473.78A19.22,19.22,0,0,0,3.6,7.3,12.049,12.049,0,0,0,6.035,5.811m-7.048,7.379c0-.715-.325-1.182-.177-1.814A1.7,1.7,0,0,1-.783,9.888,11.46,11.46,0,0,1,2.194,2.834,12.409,12.409,0,0,1,6.035-.546a3.024,3.024,0,0,1,1.879-.626A2.415,2.415,0,0,1,10.2,0s.313.16.313.319c-.083.236.555,2.351.555,2.665a.727.727,0,0,1-.165.549,14.688,14.688,0,0,1-1.648,2.9V6.52c-.23.7-1.258,1.406-1.648,1.725-.384.154-1.962,1.8-2.044,1.725-.7.313-1.879.863-1.8,1.489,0,1.648,0,.236.7,1.335a14.131,14.131,0,0,0,1.182,1.879,4.946,4.946,0,0,0,2.984.945,5.5,5.5,0,0,0,3.994-1.176,9.13,9.13,0,0,1,1.5-.786c.071,0,.857-.626,1.1-.786A13.565,13.565,0,0,0,16.941,11.7a2.124,2.124,0,0,1,1.648-.4c.242-.071.39.16.39.4s-.077.549-.077.863c-.071,0-.071.39-.154.473a13.269,13.269,0,0,1-2.269,1.642c-.709.632-1.424.715-2.127,1.495l-.313.39a2.131,2.131,0,0,0-1.566,1.253,19.712,19.712,0,0,1-2.2,1.418c-.154,0-.857-.083-.933-.083a6.964,6.964,0,0,0-1.182.4l-.242.23-1.406-.154a3.243,3.243,0,0,0-.863,0,5.607,5.607,0,0,0-1.572-.626c-.39-.077-.313-.313-.868-.786-.461-.4-1.406-.7-1.962-1.412a7.331,7.331,0,0,1-1.8-2.2,5.157,5.157,0,0,0-.461-1.406" transform="translate(1.23 1.184)" fill="#5d4788"/></g><g transform="translate(382.715 26.106)"><path d="M2.415,9.586c-.555-.083-1.1-.307-1.1-.945l-.23-1.566a1.525,1.525,0,0,1-.16-.549V5.349A8.081,8.081,0,0,0,.613,3.388c.23.236-1.1-2.121-1.1-2.984A2.548,2.548,0,0,1,1.859-1.953,2.667,2.667,0,0,1,3.986.091c0,.077,0,.626.16.78h.313c.7,0,1.406-1.323,1.489-1.253C7.124-1.085,7.6-1.717,9-1.717c1.885,0,2.907,3.06,3.533,4.083A5.157,5.157,0,0,0,15.6,4.883a5.655,5.655,0,0,0,1.247.071c.165,0,.313.236.4.236,0-.16,1.808-1.176,2.351-.78.23-.083.313-.16.715-.319.23-.077.23.236.461.16.4-.16.951-.786,1.1-.786.4-.16.7,0,1.176-.16a25.572,25.572,0,0,0,2.434-1.1l1.412-.62c.792-.319,1.962-1.258,2.741-1.495.8-.236,1.731-1.572,3.22-1.572.473,0,.868.632.868,1.028a2.713,2.713,0,0,1-1.731,2.346c.083-.077-.4.242-1.962,1.258-.23.154-.461.077-.786.236-.774.467-1.489,1.022-2.653,1.642-.638.319-1.341.715-2.139,1.1-.691.313-1.962.863-3.368,1.406-.39.165-.39.473-.774.626-.242.083-1.028-.307-1.258-.236a5.4,5.4,0,0,1-.945.555,10.831,10.831,0,0,1-1.489.236A14.145,14.145,0,0,1,14.81,8.8c-1.56,0-1.962-.632-2.9-1.093A4.624,4.624,0,0,1,9.788,5.976C9.245,5.349,8.382,3.228,7.6,3.228A22.81,22.81,0,0,0,5.865,5.349,13.519,13.519,0,0,0,5.4,6.915c-.083.792-.325,2.67-1.66,2.67Z" transform="translate(0.492 1.953)" fill="#5d4788"/></g><g transform="translate(408.475 0.002)"><path d="M6.648,27.132c0-.3-.183-.65-.183-1,0-.473.354-.833.414-1.241.171-1.117.242-2.115.414-3.291a22.294,22.294,0,0,0,.951-4.236,17.259,17.259,0,0,0,1.347-5c-.059-.591-.183-.591-.23-.591-.414,0-2.83,2.771-3.888,3.769a12.014,12.014,0,0,1-1.9,1.524c-.461.3-.514.945-.933,1.3l-1.418.762c-.219.177-.171.236-.461.236-1.294,0-1.648-1.353-2.115-2.233A1.985,1.985,0,0,1-.117,15.54c1.123,0,1.223.408,1.7.408.644,0,1.648-1.235,2.641-2.174,0,0,1.477-1,1.66-1.707,0-1.117,1.123-.933,1.767-1.642l1.814-1.95c.538.538,2.18-3.763,2.233-3.763A12.224,12.224,0,0,0,7.351,6.123,8.439,8.439,0,0,1,3.877,7.245c-.532,0-.7-.709-.7-1.063s1-.414,1.6-.7A8.121,8.121,0,0,0,7.582,4.362C8.7,3.594,14.057,2.95,14.3.652c.112-.236.762-1.176.933-1.589a21.528,21.528,0,0,1,2.18-2.942c.177-.177.833-1.648,1.938-1.648h.709c.526.118.768,1.063.715,1.235a8.5,8.5,0,0,1-.892,2.357c-.059.473-.585.821-.585,1.294,0,.118,0,.473.585.473a12.716,12.716,0,0,1,2.83-.473c1.235-.236,4.059-.473,4.532-.886,1.583-.526,3.7-.29,5.359-1.117a75.5,75.5,0,0,1,7.881-1.117c.171.118,1.347-.3,2.062-.3a20.848,20.848,0,0,1,6-.7c1.235,0,3.586-.065,3.586,1.761-.242.473-.532.827-1,.827-.762,0-.827-.473-1.347-.532a5.946,5.946,0,0,0-1.406-.118h-2.31c-1.583,0-3.06.591-4.709.591H40.065c-.644.118-.993,1-3.232,1-.171,0-.3-.065-.526-.065a8.831,8.831,0,0,1-.951.177h-.7c-.289.059-.23.118-.532.236a9.734,9.734,0,0,1-2.942.354c-.644.059-1.235.585-1.879.585-.23,0-.414-.059-.7-.059a14.735,14.735,0,0,0-2.771.821,39.14,39.14,0,0,0-5.051,1c-2.416.656-2.954.656-4.3,2.594-.774,1.063-.473,1.767-1,3-.112.473-.827,1-1.063,1.767-1.117,2-1.058,3.7-1.53,6.062-.461.408-.88,2.351-.993,3-.242.821-.36,1.761-.591,2.647a14.937,14.937,0,0,0-.774,3.06c0,.827-.171,1.648-.171,2.529A3.363,3.363,0,0,0,13.7,29.956a8.944,8.944,0,0,0,3.663-1,19.44,19.44,0,0,0,5.707-3,16.163,16.163,0,0,0,3.06-1.241c1.465-.467,3-2.292,5.111-2.292.715,0,1.477.414,1.477,1.117,0,1.176-1.294,1.241-2.411,1.536-2.411.821-1.176.053-4.177,1.583a9.113,9.113,0,0,0-2.3,1.53c-.532.236-1.235.3-1.589.473-.059,0-2.647,1.53-2.83,1.53-3.527,1.294-2.641,1.82-5.353,2.411a11.061,11.061,0,0,1-3.173.183c-1.294,0-3.645-1.536-3.947-2.948l-.36-2.062c0-.171.071-.408.071-.644" transform="translate(1.355 5.528)" fill="#5d4788"/></g><g transform="translate(439.166 17.086)"><path d="M6.584,15.9A3.324,3.324,0,0,0,8.7,14.886c.154-.154.083-.39.313-.549a3.342,3.342,0,0,1,.473-.16,3.226,3.226,0,0,0,1.016-2.351c0-.083,0-.549-.313-.473-.16,0-1.016.945-1.093.945-.083.077-.4.549-.4.549a5.656,5.656,0,0,0-1.176.786c-.313.467-1.335,1.17-1.566,1.642a.838.838,0,0,0,.62.626m-6.9.319c0-.16.555-.786.62-.863.083,0,.4-.16.721-.236a2.541,2.541,0,0,1,.933-.945c.555-.313,1.1-.473,1.566-.78.626-.319,1.182-.786,1.719-1.1.638-.632,1.731-.945,2.517-1.731l1.418-.7.384-.715L9.018,8.062c-.473-.16-.62-.945-.945-1.335a8.381,8.381,0,0,1-1.016-.709C6.04,4.925,5.485,3.98,4.392,2.881c0-.077-.313-.786-.4-1.1A2.249,2.249,0,0,1,4.475-.18,6.916,6.916,0,0,1,6.584-2.141c.083-.077.715-.544.863-.626A1.608,1.608,0,0,1,8.628-3.24c.632,0,.786.236,1.335.4.154.077.313.549.4.7C10.507-.965,8.628-.416,8.7.837c.154,1.1,1.016,1.182,1.719,1.808.325.473.715.945,1.111,1.418a9.251,9.251,0,0,1,.851.78c.083.083.242.626.325.709.071.154.786.7.868.939.065.077.378.077.461.077a10.558,10.558,0,0,0,3.055-1.412,4.585,4.585,0,0,1,.555-.077c.16,0,1.176-.549,1.329-.549.792-.4,2.038-1.258,2.753-1.495.544-.071,1.17-.154,2.032-.307.165,0,.786.78.868,1.1.077.154-.313.626-.626.78a2.468,2.468,0,0,1-1.176.709,8.005,8.005,0,0,0-1.258.236c-.083,0-.555.313-.7.313-.473,0-1.016.39-1.572.467-.945.4-1.335.786-2.269,1.258-.408.16-.555.16-.721.473-.378.39-1.566,1.253-1.483,1.808l.077,1.016c0,.236-.313.626-.242.857a4.093,4.093,0,0,1-.851,2.2c-.165.319-.23,1.1-.473,1.335-.165.242-.555.242-.786.555a3.876,3.876,0,0,1-.313.544l-.325.16A6.057,6.057,0,0,1,9.26,18.573c-.4.16-.715,0-1.188,0a1.555,1.555,0,0,1-.544.236h-.62a4.56,4.56,0,0,0-.945.473,15.548,15.548,0,0,1-1.814.39,2.148,2.148,0,0,1-1.016-.236,1.637,1.637,0,0,0-.863,0,2.853,2.853,0,0,1-.544-.236c-.945.083-2.907-.154-3.06-1.648-.083-.857.461-.7,1.016-1.329" transform="translate(1.341 3.24)" fill="#5d4788"/></g><g transform="translate(0 7.73)"><path d="M0,2.209V-.45H26.209V2.209H14.6V32.1h-2.99V2.209Z" transform="translate(0 0.45)" fill="#5d4788"/></g><g transform="translate(30.565 10.686)"><path d="M2.371,0l8,24.466L18.157,0H20.03l7.746,24.466L35.663,0h2.718L28.609,29.594H26.742L19,5.329,11.15,29.594H9.283L-.483,0Z" transform="translate(0.483)" fill="#5d4788"/></g><g transform="translate(73.814 9.946)"><path d="M12.58,2.091C5.425,2.091.243,7.32.243,15.107S5.425,28.134,12.58,28.134c7.048,0,12.324-5.235,12.324-13.027S19.628,2.091,12.58,2.091m0-2.517c8.679,0,15.143,6.511,15.143,15.533,0,9.081-6.464,15.538-15.143,15.538-8.732,0-15.143-6.458-15.143-15.538,0-9.022,6.41-15.533,15.143-15.533" transform="translate(2.563 0.426)" fill="#5d4788"/></g><g transform="translate(130.731 7.828)"><path d="M14.239,8.157C14.239,4.8,12.561,1,7.2,1H.083V15.318H7.2c5.365,0,7.043-3.74,7.043-7.161M7.2-1.662c6.989,0,10.026,4.721,10.026,9.819,0,5.158-3.037,9.825-10.026,9.825H.083V30.892H-2.9V-1.662Z" transform="translate(2.901 1.662)" fill="#5d4788"/></g><g transform="translate(157.95 10.787)"><path d="M13.929,0V2.416H-.132v10.4H11.46v2.422H-.132V27.177H13.929v2.416H-2.838V0Z" transform="translate(2.838)" fill="#5d4788"/></g><g transform="translate(183.093 10.786)"><path d="M12.953,7.21c0-3.055-1.536-6.263-6.416-6.263H.073V13.479H6.536c4.88,0,6.416-3.161,6.416-6.269m5.034,20.915H14.778L6.294,15.9H.073v12.23H-2.639V-1.469H6.536c6.357,0,9.128,4.047,9.128,8.679,0,4-2.021,7.45-6.511,8.384Z" transform="translate(2.639 1.469)" fill="#5d4788"/></g><g transform="translate(210.708 10.787)"><path d="M13.929,0V2.416H-.126v10.4h11.6v2.422H-.126V29.594H-2.838V0Z" transform="translate(2.838)" fill="#5d4788"/></g><g transform="translate(234.086 10.787)"><path d="M13.929,0V2.416H-.126v10.4H11.46v2.422H-.126V27.177H13.929v2.416H-2.838V0Z" transform="translate(2.838)" fill="#5d4788"/></g><g transform="translate(256.817 10.147)"><path d="M12.58,0A17.307,17.307,0,0,1,22.3,2.96V5.82a15.343,15.343,0,0,0-9.725-3.3C5.437,2.517.255,7.692.255,15.432S5.437,28.359,12.58,28.359A15.345,15.345,0,0,0,22.3,25.051v2.865a17.353,17.353,0,0,1-9.725,2.96C4.35,30.876-2.563,25-2.563,15.432S4.35,0,12.58,0" transform="translate(2.563)" fill="#5d4788"/></g><g transform="translate(287.11 10.788)"><path d="M0,2.007V-.409H23.816V2.007H13.258V29.185H10.546V2.007Z" transform="translate(0 0.409)" fill="#5d4788"/></g></g></g></g></svg>