<svg xmlns="http://www.w3.org/2000/svg" xmlns:xlink="http://www.w3.org/1999/xlink" width="86.808" height="86.805" viewBox="0 0 86.808 86.805"><defs><clipPath id="a"><path d="M0-37.761H86.808V49.044H0Z" transform="translate(0 37.761)" fill="none"/></clipPath></defs><g transform="translate(0 0)" clip-path="url(#a)"><g transform="translate(9.036 22.925)"><path d="M19.379,8.3v.478c1.94,0,4.17-2.064.616-5.942-4.582-5-6.113-7.372-10.825-8.779-4.083-1.106-7.6-.241-10,3.49,0,0-5.919,8.515,5.317,17.949C9.5,19.7,12.435,21.16,14.531,22.9c4.306,3.572,4,5.444,4,5.444s-6.09-3.124-10.708-2.014c-2.977.715-2.439,1.285-7.342,3.69a14.132,14.132,0,0,1-5.715,1.343c-.048-.018-.087-.037-.129-.055a15.489,15.489,0,0,1-7.037-6.627A26.342,26.342,0,0,0-11.259,28.6a34.734,34.734,0,0,1-3.593-2.2l-.069-.046c1.308,1.349,2.719,3.478,4.71,4.51.133.067.4.193.4.193a19.878,19.878,0,0,0,7.846,1.48,10.637,10.637,0,0,0,2.411-.113C4.046,31.865,4.8,30.649,9,28.573c.9-.446,7.283-2.738,11.747,4.168,0,0,.251-4.317-4.168-9.03C14.338,21.323-1.611,8.935,1.973.192,3.214-2.838,7-5.152,10.623-3.474c2.646,1.225,6.313,4.225,9.443,7.317C23.416,7.16,19.913,8.3,19.379,8.3" transform="translate(14.921 6.391)" fill="#5d4788"/></g><g transform="translate(40.886 22.924)"><path d="M20.8,18.53a34.952,34.952,0,0,1-3.593,2.2A26.074,26.074,0,0,0,18.345,16.8a15.493,15.493,0,0,1-7.037,6.625c-.039.018-.08.037-.131.055a14.077,14.077,0,0,1-5.715-1.343c-4.9-2.4-4.363-2.975-7.34-3.687-4.621-1.11-10.708,2.011-10.708,2.011s-.3-1.869,4-5.441c2.1-1.742,5.027-3.2,10.039-7.407C12.7-1.816,6.773-10.331,6.773-10.331c-2.4-3.731-5.926-4.593-10.007-3.49-4.715,1.409-6.3,3.775-10.883,8.781C-17.668-1.161-15.5.9-13.565.9V.425c-.536,0-3.97-1.143-.621-4.46,3.126-3.09,6.844-6.092,9.487-7.317,3.632-1.678,7.427.639,8.667,3.669C7.555,1.059-8.4,13.445-10.634,15.834c-4.418,4.71-4.165,9.027-4.165,9.027,4.467-6.9,10.846-4.616,11.749-4.168,4.2,2.076,4.952,3.287,8.554,3.853a10.58,10.58,0,0,0,2.411.1,19.888,19.888,0,0,0,7.848-1.462s.264-.126.393-.2c2-1.03,3.4-3.14,4.715-4.494a.144.144,0,0,0-.071.032" transform="translate(16.015 14.267)" fill="#371863"/></g><g transform="translate(0 -0.001)"><path d="M48.284,24.523A41.735,41.735,0,0,1,44.976,40.89a41.883,41.883,0,0,1-9.011,13.368A41.909,41.909,0,0,1,6.228,66.575,41.9,41.9,0,0,1-23.507,54.258,41.883,41.883,0,0,1-32.519,40.89a42.179,42.179,0,0,1,0-32.737,41.918,41.918,0,0,1,9.011-13.37A41.935,41.935,0,0,1,6.228-17.532,42.086,42.086,0,0,1,44.976,8.153a41.747,41.747,0,0,1,3.308,16.37M46.225,7.629a43.556,43.556,0,0,0-23.1-23.1,43.164,43.164,0,0,0-16.9-3.411,43.438,43.438,0,0,0-39.99,26.51,43.509,43.509,0,0,0,0,33.788,43.277,43.277,0,0,0,9.3,13.8A43.265,43.265,0,0,0,6.228,67.924a43.162,43.162,0,0,0,16.9-3.409,43.556,43.556,0,0,0,23.1-23.1,43.59,43.59,0,0,0,0-33.788" transform="translate(37.176 18.881)" fill="#5d4788"/></g></g></svg>